<svg width="256" height="256" viewBox="0 0 256 256" fill="none" xmlns="http://www.w3.org/2000/svg">
<g clip-path="url(#clip0)">
<path d="M148.012 -16.0538L41.9462 90.0122L65.9878 114.054L172.054 7.98782L148.012 -16.0538Z" fill="#D32121"/>
<path d="M0.0416301 98.0001L-24 122.042L82.066 228.108L106.108 204.066L0.0416301 98.0001Z" fill="#F7FC1C"/>
<path d="M171.556 46L156 61.5564L262.066 167.622L277.622 152.066L171.556 46Z" fill="#051BF4"/>
<mask id="path-4-inside-1" fill="white">
<rect width="256" height="256" rx="2"/>
</mask>
<rect width="256" height="256" rx="2" stroke="black" stroke-width="40" mask="url(#path-4-inside-1)"/>
<path d="M45.9756 119.515L136.485 210.024L183.618 162.891C198.197 148.312 198.1 124.561 183.392 109.852C176.135 102.596 166.681 98.9266 157.212 98.7876C157.073 89.3199 153.403 79.8639 146.148 72.6083C131.438 57.8989 107.688 57.8027 93.1087 72.3816L45.9756 119.515Z" fill="black"/>
<path d="M202.53 179.074L192.556 189.048L192.441 182.787C192.408 181.133 192.331 179.786 192.211 178.745C192.079 177.693 191.92 176.855 191.734 176.231C191.559 175.596 191.373 175.125 191.175 174.818C190.978 174.511 190.792 174.27 190.617 174.095C190.431 173.909 190.217 173.761 189.976 173.651C189.746 173.531 189.505 173.465 189.253 173.454C188.99 173.432 188.733 173.47 188.481 173.569C188.229 173.646 187.988 173.799 187.758 174.029C187.319 174.467 187.117 174.955 187.15 175.492C187.193 176.017 187.429 176.494 187.856 176.921C187.977 177.042 188.168 177.2 188.431 177.398L184.915 180.914C184.192 180.191 183.649 179.419 183.288 178.597C182.937 177.765 182.762 176.921 182.762 176.067C182.762 175.212 182.937 174.38 183.288 173.569C183.649 172.747 184.181 171.986 184.882 171.285C185.572 170.595 186.317 170.069 187.117 169.707C187.927 169.335 188.743 169.132 189.565 169.099C190.387 169.067 191.192 169.203 191.981 169.51C192.758 169.806 193.465 170.272 194.1 170.907C194.78 171.586 195.262 172.364 195.546 173.24C195.831 174.095 195.957 175.141 195.924 176.379L195.793 180.355L199.802 176.346L202.53 179.074Z" fill="black"/>
<path d="M199.088 169.806C199.636 170.354 200.184 170.803 200.732 171.153C201.279 171.504 201.805 171.756 202.309 171.909C202.824 172.052 203.301 172.09 203.739 172.024C204.166 171.948 204.538 171.751 204.856 171.433C205.163 171.126 205.355 170.759 205.431 170.332C205.508 169.883 205.47 169.406 205.316 168.902C205.163 168.398 204.911 167.873 204.56 167.325C204.21 166.777 203.761 166.229 203.213 165.682C202.676 165.145 202.134 164.701 201.586 164.351C201.027 163.989 200.502 163.737 200.009 163.595C199.505 163.441 199.034 163.408 198.596 163.496C198.157 163.562 197.785 163.748 197.478 164.055C197.16 164.372 196.969 164.75 196.903 165.189C196.826 165.616 196.859 166.087 197.002 166.602C197.144 167.095 197.396 167.621 197.757 168.179C198.108 168.727 198.552 169.269 199.088 169.806ZM195.901 172.994C194.915 172.008 194.148 170.989 193.6 169.937C193.052 168.864 192.724 167.812 192.614 166.783C192.516 165.742 192.631 164.75 192.959 163.808C193.288 162.844 193.841 161.973 194.619 161.196C195.386 160.429 196.251 159.881 197.215 159.552C198.168 159.213 199.16 159.098 200.189 159.207C201.219 159.317 202.265 159.651 203.328 160.21C204.391 160.746 205.415 161.508 206.401 162.494C207.387 163.48 208.154 164.509 208.701 165.583C209.249 166.635 209.583 167.681 209.704 168.722C209.813 169.751 209.704 170.748 209.375 171.712C209.035 172.665 208.482 173.525 207.715 174.292C206.938 175.07 206.072 175.629 205.119 175.968C204.166 176.286 203.169 176.395 202.128 176.297C201.088 176.176 200.036 175.848 198.973 175.311C197.911 174.752 196.887 173.98 195.901 172.994Z" fill="black"/>
<path d="M204.214 158.065L202.407 159.873L199.679 157.145L204.707 152.117L217.097 164.507L213.877 167.727L204.214 158.065Z" fill="black"/>
<path d="M219.047 162.573L218.531 155.007L218.465 155.073C218.343 155.566 218.206 155.934 218.052 156.175C217.887 156.406 217.728 156.598 217.574 156.752C216.97 157.356 216.295 157.801 215.549 158.087C214.814 158.362 214.062 158.489 213.295 158.468C212.527 158.426 211.771 158.24 211.025 157.912C210.28 157.584 209.601 157.114 208.988 156.5C208.33 155.843 207.843 155.114 207.526 154.314C207.199 153.503 207.052 152.664 207.086 151.798C207.12 150.91 207.34 150.021 207.747 149.132C208.154 148.243 208.764 147.393 209.577 146.58C210.4 145.756 211.257 145.141 212.145 144.734C213.034 144.327 213.912 144.107 214.778 144.073C215.656 144.028 216.495 144.163 217.295 144.48C218.084 144.786 218.791 145.252 219.415 145.876C220.116 146.577 220.718 147.497 221.221 148.637C221.724 149.755 222.045 151.032 222.186 152.469L222.786 158.834L219.047 162.573ZM216.252 149.104C215.967 148.82 215.65 148.612 215.299 148.481C214.937 148.338 214.57 148.268 214.197 148.268C213.824 148.269 213.457 148.34 213.094 148.483C212.743 148.616 212.425 148.824 212.14 149.11C211.854 149.395 211.64 149.719 211.497 150.081C211.365 150.432 211.298 150.794 211.298 151.167C211.297 151.54 211.368 151.907 211.51 152.269C211.641 152.62 211.849 152.938 212.134 153.222C212.419 153.507 212.742 153.721 213.104 153.863C213.454 153.994 213.816 154.059 214.189 154.059C214.562 154.058 214.924 153.992 215.275 153.86C215.637 153.717 215.961 153.502 216.246 153.217C216.532 152.931 216.741 152.613 216.873 152.262C217.016 151.9 217.088 151.532 217.088 151.159C217.089 150.787 217.023 150.425 216.892 150.074C216.75 149.712 216.537 149.389 216.252 149.104Z" fill="black"/>
<path d="M145.995 215.825L144.141 217.68L141.342 214.881L146.501 209.723L159.212 222.434L155.908 225.738L145.995 215.825Z" fill="black"/>
<path d="M161.14 220.522L160.611 212.759L160.543 212.827C160.419 213.333 160.278 213.71 160.12 213.958C159.951 214.195 159.787 214.392 159.63 214.549C159.01 215.169 158.317 215.626 157.552 215.919C156.798 216.202 156.027 216.332 155.239 216.311C154.452 216.267 153.676 216.076 152.911 215.74C152.147 215.403 151.45 214.921 150.821 214.291C150.146 213.617 149.647 212.87 149.322 212.049C148.985 211.217 148.834 210.356 148.869 209.467C148.904 208.556 149.131 207.644 149.548 206.732C149.966 205.821 150.591 204.948 151.425 204.114C152.27 203.269 153.148 202.638 154.06 202.22C154.972 201.803 155.872 201.577 156.761 201.542C157.661 201.495 158.522 201.635 159.343 201.96C160.153 202.274 160.878 202.751 161.518 203.392C162.237 204.111 162.855 205.055 163.371 206.224C163.887 207.371 164.217 208.681 164.361 210.155L164.977 216.686L161.14 220.522ZM158.273 206.704C157.981 206.412 157.655 206.198 157.295 206.064C156.924 205.918 156.547 205.845 156.165 205.846C155.782 205.846 155.405 205.92 155.034 206.067C154.674 206.202 154.347 206.417 154.054 206.709C153.761 207.002 153.541 207.335 153.395 207.706C153.259 208.066 153.191 208.438 153.191 208.82C153.19 209.203 153.263 209.579 153.408 209.951C153.543 210.31 153.756 210.636 154.048 210.929C154.341 211.221 154.672 211.44 155.043 211.585C155.403 211.72 155.774 211.787 156.157 211.786C156.539 211.786 156.911 211.718 157.271 211.582C157.642 211.436 157.975 211.216 158.268 210.923C158.56 210.63 158.775 210.303 158.91 209.943C159.057 209.572 159.131 209.195 159.131 208.812C159.132 208.43 159.065 208.058 158.93 207.699C158.784 207.327 158.565 206.996 158.273 206.704Z" fill="black"/>
<path d="M161.507 200.314L159.653 202.168L156.854 199.37L162.013 194.211L174.724 206.922L171.42 210.226L161.507 200.314Z" fill="black"/>
<path d="M176.744 204.918L176.214 197.156L176.147 197.224C176.022 197.73 175.881 198.107 175.723 198.355C175.554 198.591 175.391 198.788 175.233 198.946C174.614 199.566 173.921 200.022 173.156 200.316C172.401 200.598 171.63 200.729 170.843 200.707C170.055 200.663 169.279 200.473 168.515 200.137C167.75 199.8 167.053 199.317 166.424 198.688C165.75 198.014 165.25 197.266 164.925 196.446C164.589 195.613 164.438 194.753 164.473 193.864C164.508 192.953 164.734 192.041 165.152 191.129C165.569 190.217 166.195 189.344 167.028 188.511C167.873 187.666 168.752 187.035 169.664 186.617C170.576 186.2 171.476 185.973 172.365 185.938C173.265 185.892 174.126 186.032 174.946 186.357C175.756 186.671 176.481 187.148 177.122 187.788C177.841 188.507 178.458 189.452 178.974 190.621C179.49 191.768 179.82 193.078 179.964 194.552L180.58 201.082L176.744 204.918ZM173.877 191.1C173.585 190.808 173.259 190.595 172.899 190.46C172.528 190.315 172.151 190.242 171.768 190.243C171.386 190.243 171.009 190.317 170.637 190.464C170.277 190.599 169.951 190.813 169.658 191.106C169.365 191.399 169.145 191.731 168.998 192.103C168.863 192.463 168.795 192.834 168.794 193.217C168.794 193.599 168.866 193.976 169.012 194.347C169.146 194.707 169.36 195.033 169.652 195.325C169.944 195.617 170.276 195.836 170.647 195.982C171.007 196.117 171.378 196.184 171.76 196.183C172.143 196.183 172.514 196.115 172.874 195.979C173.246 195.832 173.578 195.612 173.871 195.32C174.164 195.027 174.378 194.7 174.514 194.34C174.66 193.968 174.734 193.591 174.735 193.209C174.735 192.826 174.668 192.455 174.534 192.095C174.388 191.724 174.169 191.393 173.877 191.1Z" fill="black"/>
<rect x="179.497" y="187.324" width="5.91268" height="2.72402" transform="rotate(-45 179.497 187.324)" fill="black"/>
</g>
<defs>
<clipPath id="clip0">
<rect width="256" height="256" fill="white"/>
</clipPath>
</defs>
</svg>
