<svg width="256" height="256" viewBox="0 0 256 256" fill="none" xmlns="http://www.w3.org/2000/svg">
<g clip-path="url(#clip0)">
<rect width="256" height="256" fill="#1E1E1E"/>
<rect x="30" width="256" height="256" fill="white"/>
<path d="M127 185H186.259V71.2222H127V185Z" fill="#051BF4"/>
<path d="M219.444 151.518C219.444 133.026 204.587 118.035 186.259 118.035C167.932 118.035 153.074 133.026 153.074 151.518C153.074 170.009 167.932 185 186.259 185C204.587 185 219.444 170.009 219.444 151.518Z" fill="#051BF4"/>
<path d="M219.444 104.705C219.444 86.2128 204.587 71.2222 186.259 71.2222C167.932 71.2222 153.074 86.2128 153.074 104.705C153.074 123.196 167.932 138.187 186.259 138.187C204.587 138.187 219.444 123.196 219.444 104.705Z" fill="#051BF4"/>
<path d="M92 184.778H151.259V71H92V184.778Z" fill="#D32121"/>
<path d="M184.444 151.295C184.444 132.804 169.587 117.813 151.259 117.813C132.932 117.813 118.074 132.804 118.074 151.295C118.074 169.787 132.932 184.778 151.259 184.778C169.587 184.778 184.444 169.787 184.444 151.295Z" fill="#D32121"/>
<path d="M184.444 104.482C184.444 85.9905 169.587 71 151.259 71C132.932 71 118.074 85.9905 118.074 104.482C118.074 122.974 132.932 137.965 151.259 137.965C169.587 137.965 184.444 122.974 184.444 104.482Z" fill="#D32121"/>
<path d="M57 184.778H116.259V71.0001H57V184.778Z" fill="#F7FC1C"/>
<path d="M149.444 151.296C149.444 132.804 134.587 117.813 116.259 117.813C97.9316 117.813 83.0741 132.804 83.0741 151.296C83.0741 169.787 97.9316 184.778 116.259 184.778C134.587 184.778 149.444 169.787 149.444 151.296Z" fill="#F7FC1C"/>
<path d="M149.444 104.482C149.444 85.9906 134.587 71.0001 116.259 71.0001C97.9316 71.0001 83.0741 85.9906 83.0741 104.482C83.0741 122.974 97.9316 137.965 116.259 137.965C134.587 137.965 149.444 122.974 149.444 104.482Z" fill="#F7FC1C"/>
</g>
<defs>
<clipPath id="clip0">
<rect width="256" height="256" fill="white"/>
</clipPath>
</defs>
</svg>
