<svg width="1069" height="221" viewBox="0 0 1069 221" fill="none" xmlns="http://www.w3.org/2000/svg">
<path fill="black" d="M8.987 154.076L4.967 155.372L3.206 159.372L3.022 159.689L3.115 158.973L2.937 159.448L2.421 161.272L1.961 161.43L16.218 161.588L17.119 161.43L17.259 162.836L16.679 165.107L17.479 164.158L18.291 162.199L18.688 161.706L19.169 160.214L19.611 158.645L19.807 157.591L20.117 156.805L21.193 154.885L22.127 153.126L22.562 152.535L23.145 151.526L23.725 150.432L24.212 149.595L24.61 148.537L25.056 147.349L25.563 145.913L26.103 144.389L26.634 142.783L27.101 141.353L27.654 139.763L28.292 137.941L28.967 135.974L29.514 134.369L30.145 132.762L30.91 130.804L31.436 129.347L31.911 128.027L32.339 126.836L32.825 125.592L33.36 124.219L33.919 122.784L34.477 121.296L35.012 119.87L35.651 118.154L36.222 116.33L36.697 114.799L37.115 113.445L37.59 112.09L38.125 110.559L38.735 108.803L39.281 106.993L39.756 105.409L40.208 103.901L40.719 102.288L41.254 100.598L41.774 98.955L42.293 97.365L42.828 95.728L43.308 94.255L43.859 92.787L44.468 91.155L45.018 89.683L45.61 88.204L46.263 86.567L46.938 84.876L47.642 83.144L48.325 81.466L48.986 79.842L49.647 78.271L50.329 76.646L50.922 75.237L51.569 73.881L52.31 72.31L53.022 70.803L53.733 69.349L54.474 67.831L55.26 66.214L55.958 64.637L56.611 63.159L57.249 61.714L57.828 60.428L58.422 59.108L59.101 57.595L59.697 56.072L60.212 54.744L60.628 53.652L61.326 52.144L62.288 50.035L63.113 48.02L63.571 46.918L64.118 46.062L64.928 44.645L65.651 43.387L66.302 42.271L66.864 41.395L67.283 40.776L67.606 40.265L67.653 40.125L67.619 40.17L66.471 41.045L62.018 42.533L55.564 40.981L51.933 37.089L51.349 35.659L51.519 35.85L51.461 35.815V36.924V38.191L51.467 39.104L51.394 40.176L51.303 41.637L51.212 43.256L51.159 44.367L50.979 45.801L50.704 48.005L50.585 49.68L50.496 51.055L50.425 52.243L50.302 53.538L50.158 55.021L50.009 56.547L49.86 58.179L49.716 59.767L49.59 61.204L49.373 62.743L49.135 64.433L48.873 66.311L48.673 68.19L48.495 69.88L48.336 71.403L48.12 72.979L47.882 74.721L47.619 76.663L47.419 78.658L47.241 80.453L47.064 82.232L46.887 83.958L46.709 85.7L46.531 87.442L46.353 89.184L46.175 90.926L45.981 92.83L45.849 94.628L45.73 96.265L45.614 97.859L45.499 99.295L45.38 100.773L45.263 102.235L45.146 103.644L45.027 105.07L44.893 106.695L44.793 108.795L44.706 110.659L44.619 112.286L44.518 114.243L44.514 115.963V117.389V118.577V119.765L44.541 122.275L45.125 125.827L47.183 130.076L54.187 134.774L62.478 133.534L66.424 130.178L68.118 127.613L68.544 126.923L69.36 125.566L70.131 123.948L70.682 122.752L71.342 121.328L72.032 119.836L72.775 118.011L73.432 116.382L74.255 114.628L75.081 112.866L75.693 111.604L76.323 110.3L76.937 109.032L77.614 107.66L78.307 106.252L79.061 104.708L79.814 103.056L80.507 101.542L81.252 99.903L82.018 98.166L82.733 96.554L83.515 94.77L84.239 92.984L84.898 91.371L85.557 89.758L86.217 88.145L86.876 86.532L87.618 84.681L88.297 82.773L88.897 81.104L89.353 79.862L89.892 78.665L90.59 77.046L91.336 75.305L92.02 73.615L92.657 72.047L93.193 70.74L93.78 69.485L94.474 67.971L95.118 66.571L95.701 65.382L96.334 64.08L96.774 63.188L97.236 62.385L97.905 61.179L98.517 60.079L99.366 58.61L99.942 57.593L100.473 56.866L101.391 55.56L102.155 54.509L102.186 54.424L102.089 54.55L102.08 54.464L99.789 55.665L92.15 55.974L85.624 51.061L84.438 48.33L84.525 48.725L84.603 48.455L84.567 48.504L84.516 50.028L84.466 52.027L84.448 53.507L84.311 54.617L84.133 56.148L83.969 57.559L83.747 59.182L83.509 60.924L83.284 62.573L83.001 64.434L82.704 66.388L82.422 68.243L82.171 69.728L81.904 71.312L81.637 72.896L81.358 74.549L81.08 76.321L80.813 78.024L80.546 79.727L80.269 81.491L79.971 83.37L79.682 85.188L79.393 87.006L79.104 88.824L78.819 90.643L78.534 92.462L78.249 94.281L77.961 96.119L77.674 97.997L77.39 99.856L77.106 101.715L76.802 103.72L76.515 105.722L76.247 107.578L75.979 109.434L75.713 111.274L75.441 113.073L75.167 114.888L74.894 116.703L74.603 118.673L74.357 120.644L74.128 122.461L73.899 124.278L73.658 126.231L73.463 128.106L73.279 129.845L73.095 131.584L72.915 133.286L72.755 134.87L72.592 136.491L72.429 138.112L72.242 140.085L72.157 141.941L72.087 143.445L72.017 144.949L71.948 146.43L71.857 148.201L71.765 149.995L71.666 152.287L71.704 154.265L71.732 155.745L71.781 157.617L71.992 159.83L72.252 162.321L72.634 164.332L73.116 166.594L73.771 168.515L74.897 171.292L80.196 177.583L89.458 180.185L97.62 177.731L100.984 174.892L102.552 173.186L104.121 170.944L105.33 169.092L106.574 166.739L107.833 164.277L108.683 162.13L109.218 160.68L109.789 159.141L110.418 157.391L111.011 155.73L111.691 153.843L112.262 152.094L112.75 150.573L113.238 149.051L113.738 147.493L114.34 145.796L114.929 144.136L115.518 142.476L116.118 140.785L116.772 138.939L117.415 137.124L118.058 135.309L118.684 133.542L119.22 132.076L119.773 130.562L120.326 129.048L120.879 127.534L121.388 126.143L121.967 124.657L122.591 123.048L123.215 121.439L123.839 119.83L124.477 118.183L125.119 116.506L125.747 114.867L126.375 113.228L127.003 111.589L127.645 109.913L128.287 108.205L128.915 106.534L129.543 104.863L130.171 103.192L130.864 101.337L131.519 99.418L132.112 97.683L132.705 95.948L133.298 94.213L133.841 92.628L134.418 91.074L135.047 89.371L135.676 87.668L136.304 85.965L136.973 84.146L137.602 82.325L138.191 80.621L138.78 78.917L139.369 77.212L139.905 75.662L140.474 74.143L141.098 72.47L141.722 70.797L142.346 69.124L142.88 67.693L143.444 66.356L144.103 64.779L144.762 63.202L145.421 61.625L146.076 60.058L146.695 58.586L147.318 57.104L147.941 55.622L148.564 54.14L149.103 52.859L149.79 51.363L150.564 49.668L151.338 47.973L152.14 46.214L152.851 44.612L153.534 43.074L154.217 41.536L154.889 40.023L155.516 38.629L156.154 37.21L156.792 35.791L157.401 34.438L158.103 32.928L158.835 31.352L159.608 29.685L160.218 28.21L160.787 26.827L161.186 25.822L161.758 24.587L162.282 23.412L162.699 22.618L162.765 22.308L160.459 24.2L151.201 25.698L143.412 19.825L142.542 16.46L142.692 16.568L142.912 17.625L142.89 19.16L142.866 20.832L142.774 22.265L142.672 23.85L142.578 25.327L142.409 27.119L142.231 29.02L142.077 30.69L141.899 32.125L141.693 33.79L141.487 35.455L141.27 37.201L141 39.139L140.741 40.996L140.482 42.853L140.248 44.511L139.991 45.922L139.705 47.532L139.419 49.142L139.133 50.752L138.859 52.292L138.547 53.926L138.224 55.63L137.901 57.335L137.578 59.04L137.283 60.586L136.919 62.258L136.526 64.088L136.133 65.918L135.74 67.748L135.319 69.727L134.911 71.766L134.529 73.657L134.148 75.548L133.767 77.439L133.4 79.253L132.994 81.129L132.575 83.082L132.156 85.035L131.737 86.988L131.316 88.959L130.963 90.631L130.613 92.285L130.264 93.939L129.915 95.593L129.566 97.247L129.198 99.015L128.861 100.784L128.543 102.439L128.225 104.094L127.907 105.749L127.59 107.404L127.252 109.191L126.963 111.008L126.694 112.693L126.425 114.378L126.156 116.063L125.887 117.748L125.623 119.403L125.31 121.332L124.992 123.292L124.674 125.252L124.357 127.212L124.031 129.235L123.741 131.132L123.46 132.965L123.18 134.798L122.9 136.631L122.592 138.682L122.359 140.608L122.15 142.316L121.941 144.024L121.732 145.732L121.531 147.365L121.304 149.23L121.069 151.169L120.834 153.108L120.57 155.316L120.405 157.327L120.263 159.069L120.121 160.811L119.969 162.699L119.871 164.429L119.782 166.013L119.693 167.597L119.596 169.332L119.515 171.172L119.44 172.861L119.359 174.803L119.357 176.481V177.907V179.333V180.996L119.397 183.73L119.715 185.979L120.291 188.919L123.582 195.447L134.147 200.936L145.054 197.404L148.035 194.166L149.233 192.457L150.444 190.236L151.354 188.44L152.383 186.188L153.306 184.129L154.03 182.338L154.624 180.86L155.328 179.1L156.025 177.127L156.619 175.437L157.308 173.469L157.842 171.723L158.288 170.258L158.734 168.793L159.233 167.148L159.758 165.351L160.232 163.735L160.706 162.119L161.178 160.507L161.708 158.74L162.238 156.969L162.768 155.198L163.277 153.503L163.832 151.73L164.408 149.881L164.984 148.032L165.539 146.253L166.015 144.781L166.512 143.239L167.008 141.696L167.504 140.153L167.969 138.714L168.474 137.245L169.011 135.673L169.548 134.101L170.084 132.529L170.575 131.098L171.1 129.667L171.671 128.095L172.242 126.523L172.813 124.951L173.336 123.519L173.893 122.087L174.499 120.516L175.105 118.945L175.711 117.374L176.317 115.803L176.922 114.232L177.527 112.66L178.132 111.088L178.737 109.516L179.413 107.741L179.995 106.021L180.508 104.505L181.021 102.989L181.534 101.473L182.032 100.002L182.652 98.19L183.287 96.332L183.922 94.474L184.507 92.764L185.089 91.172L185.723 89.433L186.357 87.694L187.056 85.77L187.663 83.964L188.208 82.344L188.753 80.724L189.152 79.526L189.573 78.479L190.152 77.014L190.731 75.549L191.276 74.168L191.955 72.51L192.668 70.768L193.197 69.455L193.713 68.4L194.426 66.922L195.06 65.605L195.87 64.023L196.62 62.55L197.257 61.38L197.521 60.8L197.633 60.651L197.681 60.476L196.018 61.736L185.79 63.865L175.373 56.316L174.034 51.365L174.054 51.401L174.088 52.256L173.961 53.752L173.824 55.419L173.582 56.733L173.285 58.37L172.983 60.033L172.711 61.564L172.444 63.069L172.177 64.574L171.957 65.828L171.644 67.24L171.28 68.902L170.916 70.564L170.525 72.352L170.135 74.299L169.771 76.119L169.407 77.939L169.022 79.867L168.709 81.558L168.416 83.141L168.123 84.724L167.83 86.307L167.524 87.961L167.218 89.71L166.924 91.388L166.63 93.066L166.336 94.744L166.035 96.465L165.734 98.249L165.44 99.99L165.146 101.731L164.852 103.472L164.53 105.393L164.246 107.378L163.988 109.183L163.73 110.988L163.472 112.793L163.231 114.476L162.923 116.186L162.597 118.017L162.271 119.848L161.945 121.679L161.599 123.65L161.283 125.621L160.987 127.452L160.691 129.283L160.396 131.114L160.108 132.891L159.82 134.572L159.524 136.308L159.229 138.044L158.934 139.78L158.648 141.455L158.363 143.034L158.069 144.675L157.776 146.316L157.483 147.957L157.178 149.68L156.899 151.663L156.632 153.564L156.365 155.465L156.116 157.242L155.878 158.823L155.621 160.527L155.364 162.231L155.064 164.226L154.86 166.024L154.694 167.53L154.528 169.036L154.35 170.641L154.178 172.431L154.017 174.122L153.844 175.931L153.655 178.029L153.459 180.22L153.376 181.858L153.279 184.43L153.424 186.604L153.598 188.392L159.229 199.08L177.259 200.393L183.854 192.496L184.61 190.456L185.222 188.641L185.886 186.109L186.371 184.117L186.791 182.432L187.171 180.891L187.631 179.041L188.089 176.875L188.473 175.02L188.823 173.311L189.166 171.828L189.544 170.199L189.922 168.57L190.32 166.858L190.762 164.869L191.184 162.963L191.606 161.057L191.944 159.49L192.315 158.212L192.778 156.596L193.241 154.98L193.704 153.364L194.158 151.779L194.648 150.099L195.147 148.388L195.646 146.677L196.145 144.966L196.588 143.441L197.11 141.855L197.69 140.084L198.27 138.313L198.85 136.542L199.452 134.702L200.05 132.798L200.627 130.962L201.204 129.126L201.781 127.29L202.341 125.507L202.945 123.663L203.566 121.767L204.187 119.871L204.808 117.975L205.429 116.079L206.051 114.183L206.673 112.287L207.295 110.391L207.916 108.495L208.537 106.599L209.159 104.703L209.781 102.807L210.403 100.911L211.025 99.015L211.625 97.188L212.224 95.425L212.846 93.593L213.468 91.761L214.09 89.929L214.645 88.295L215.217 86.718L215.859 84.944L216.501 83.17L217.143 81.396L217.723 79.79L218.301 78.31L218.943 76.663L219.585 75.016L220.227 73.369L220.848 71.775L221.433 70.308L222.039 68.787L222.645 67.266L223.251 65.745L223.809 64.342L224.473 62.756L225.186 61.053L225.899 59.35L226.622 57.623L227.307 56.115L227.981 54.631L228.655 53.147L229.174 52.021L229.913 50.667L230.815 48.958L231.766 47.142L232.54 45.642L233.264 44.248L233.781 43.284L234.552 42.097L235.357 40.817L235.822 39.922L236.145 39.229L236.331 38.813L234.777 40.241L227.905 43.198L216.567 39.678L212.404 33.089L212.192 32.255L212.254 33.006L212.245 34.232L212.256 35.405L212.17 36.367L212.051 37.898L211.926 39.513L211.801 41.392L211.682 43.187L211.574 44.834L211.452 46.23L211.318 47.774L211.184 49.318L211.062 50.731L210.897 52.302L210.719 54.005L210.541 55.708L210.353 57.504L210.166 59.537L209.988 61.477L209.81 63.417L209.645 65.224L209.461 66.704L209.263 68.318L209.065 69.932L208.867 71.546L208.666 73.19L208.459 74.897L208.255 76.573L208.052 78.249L207.849 79.925L207.659 81.48L207.433 83.098L207.193 84.837L206.953 86.576L206.713 88.315L206.475 90.038L206.237 91.729L205.997 93.437L205.758 95.145L205.519 96.853L205.282 98.543L205.049 100.202L204.814 101.878L204.579 103.554L204.344 105.23L204.09 107.066L203.874 108.902L203.676 110.579L203.478 112.256L203.28 113.933L203.087 115.562L202.845 117.491L202.598 119.468L202.351 121.445L202.09 123.55L201.875 125.537L201.673 127.396L201.471 129.255L201.256 131.261L201.1 133.15L200.956 134.892L200.812 136.634L200.658 138.523L200.552 140.215L200.455 141.759L200.358 143.303L200.252 145.039L200.176 147.026L200.108 148.821L200.033 150.876L200.022 152.561L200.013 153.987L200.01 155.833L200.116 157.917L200.256 160.256L200.529 162.194L201.186 165.631L204.328 172.15L214.287 178.77L227.699 176.026L233.065 170.11L234.315 167.837L235.269 165.982L236.28 163.557L237.112 161.514L237.73 159.722L238.235 158.233L238.833 156.48L239.483 154.356L240.044 152.497L240.552 150.802L241.006 149.411L241.515 147.858L242.024 146.305L242.448 144.99L243.002 143.475L243.644 141.723L244.286 139.971L244.928 138.218L245.596 136.476L246.264 134.734L246.932 132.992L247.582 131.298L248.276 129.524L248.989 127.702L249.702 125.88L250.454 123.957L251.07 122.338L251.648 120.82L252.226 119.302L252.804 117.784L253.469 116.027L254.092 114.205L254.632 112.623L255.172 111.041L255.712 109.459L256.218 107.977L256.767 106.466L257.351 104.855L257.935 103.244L258.519 101.633L259.138 99.922L259.723 98.243L260.274 96.664L260.825 95.085L261.376 93.506L261.86 92.121L262.376 90.767L262.962 89.22L263.548 87.673L264.134 86.126L264.604 84.884L265.258 83.373L266.034 81.559L266.81 79.745L267.538 78.046L268.264 76.426L269.04 74.692L269.816 72.957L270.58 71.249L271.299 69.66L272.03 68.044L272.761 66.428L273.399 65.019L274.034 63.728L274.764 62.231L275.494 60.734L276.309 59.056L277.187 57.142L277.982 55.41L278.672 53.911L279.262 52.657L279.961 51.172L280.566 49.878L281.102 48.79L281.735 47.512L282.318 46.329L283.036 44.901L283.489 43.939L283.832 43.357L283.852 43.174L283.106 43.969L275.047 47.357L262.698 42.843L259.412 37.499L259.278 37.061L259.322 36.917L259.296 37.322L259.32 38.985L259.337 40.411L259.355 41.837L259.382 42.728L259.308 43.938L259.207 45.682L259.115 47.3L258.982 48.758L258.839 50.341L258.696 51.924L258.564 53.386L258.384 55.046L258.193 56.827L258.002 58.608L257.803 60.466L257.605 62.523L257.414 64.502L257.223 66.481L257.028 68.5L256.871 70.218L256.718 71.896L256.565 73.574L256.412 75.252L256.286 76.635L256.106 78.083L255.892 79.825L255.678 81.567L255.464 83.309L255.228 85.238L255.03 87.231L254.852 89.037L254.674 90.843L254.496 92.649L254.33 94.332L254.13 96.079L253.916 97.948L253.702 99.817L253.488 101.686L253.274 103.555L253.06 105.424L252.846 107.293L252.632 109.162L252.418 111.031L252.206 112.885L251.981 114.706L251.755 116.542L251.529 118.378L251.303 120.214L251.082 122.001L250.863 123.693L250.638 125.434L250.413 127.175L250.188 128.916L249.949 130.771L249.748 132.531L249.559 134.177L249.37 135.823L249.181 137.469L248.984 139.197L248.785 141.099L248.594 142.919L248.403 144.739L248.2 146.683L248.043 148.429L247.897 150.052L247.751 151.675L247.595 153.427L247.45 155.35L247.314 157.144L247.166 159.147L247.08 160.834L247.004 162.312L246.918 164.115L246.89 166.183L246.874 168.463L246.99 170.347L247.312 173.563L249.691 180.381L259.613 188.632L273.228 187.17L279.566 181.091L281.319 177.739L282.125 175.827L282.973 173.272L283.712 170.913L284.245 168.772L284.603 167.225L285.013 165.478L285.391 163.805L285.718 162.333L286.045 160.861L286.395 159.295L286.792 157.453L287.167 155.704L287.541 153.955L287.878 152.365L288.21 150.966L288.581 149.408L288.952 147.85L289.323 146.292L289.699 144.717L290.11 142.983L290.517 141.267L290.923 139.551L291.329 137.835L291.689 136.299L292.134 134.672L292.627 132.865L293.12 131.058L293.613 129.251L294.041 127.671L294.543 126.06L295.113 124.222L295.683 122.384L296.253 120.546L296.844 118.64L297.435 116.671L298.005 114.77L298.575 112.869L299.145 110.968L299.705 109.101L300.259 107.264L300.823 105.393L301.387 103.522L301.951 101.651L302.515 99.78L303.092 97.913L303.669 96.046L304.246 94.179L304.823 92.312L305.39 90.48L305.959 88.68L306.539 86.846L307.119 85.012L307.699 83.178L308.297 81.284L308.86 79.453L309.405 77.682L309.95 75.911L310.495 74.14L311.005 72.482L311.514 70.919L312.059 69.243L312.604 67.567L313.149 65.891L313.623 64.432L314.09 63.129L314.631 61.611L315.172 60.093L315.713 58.575L316.139 57.373L316.693 56.027L317.369 54.367L318.045 52.707L318.662 51.192L319.232 49.874L319.863 48.412L320.494 46.95L321.063 45.632L321.722 44.196L322.444 42.616L322.934 41.53L323.338 40.8L323.991 39.586L324.669 38.326L325.406 36.934L325.604 36.486L325.653 36.477L325.589 36.495L323.164 38.479L311.679 40.086L302.569 32.834L301.408 29.135L301.318 28.77L301.347 29.957L301.298 31.065L301.239 32.491L301.2 33.541L301.039 35.119L300.849 37.072L300.665 38.958L300.486 40.673L300.301 42.454L300.116 44.235L299.939 45.939L299.763 47.477L299.579 49.092L299.395 50.707L299.211 52.322L299.052 53.728L298.83 55.325L298.581 57.131L298.332 58.937L298.083 60.743L297.824 62.616L297.557 64.615L297.299 66.546L297.041 68.477L296.783 70.408L296.534 72.269L296.306 73.915L296.068 75.631L295.83 77.347L295.592 79.063L295.354 80.779L295.127 82.417L294.864 84.133L294.59 85.927L294.316 87.721L294.042 89.515L293.768 91.309L293.47 93.269L293.194 95.308L292.94 97.18L292.686 99.052L292.432 100.924L292.178 102.796L291.924 104.668L291.668 106.54L291.412 108.412L291.156 110.284L290.9 112.156L290.645 114.028L290.39 115.9L290.134 117.772L289.878 119.644L289.622 121.516L289.366 123.388L289.11 125.26L288.841 127.242L288.602 129.198L288.376 131.044L288.15 132.89L287.924 134.736L287.699 136.582L287.464 138.52L287.257 140.379L287.059 142.146L286.861 143.913L286.663 145.68L286.466 147.447L286.259 149.315L286.082 151.104L285.914 152.792L285.746 154.48L285.578 156.168L285.41 157.856L285.235 159.626L285.063 161.544L284.898 163.38L284.733 165.216L284.568 167.052L284.396 168.99L284.26 170.738L284.131 172.384L284.002 174.03L283.873 175.676L283.737 177.443L283.621 179.345L283.512 181.126L283.403 182.907L283.286 184.855L283.216 186.526L283.152 188.03L283.088 189.534L283.019 191.282L282.993 193.163L282.969 194.8L282.965 197.243L283.167 199.872L283.34 201.978L283.553 203.605L284.084 206.803L289.116 216.011L305.517 220.579L315.654 213.533L317.207 211.059L318.353 209.006L319.508 206.286L320.354 204.166L321.023 202.234L321.524 200.743L322.068 199.131L322.575 197.575L323.039 196.14L323.503 194.705L324.095 192.882L324.692 190.784L325.17 189.078L325.648 187.372L326.128 185.658L326.586 184.033L327.042 182.415L327.498 180.797L327.954 179.179L328.462 177.378L328.967 175.418L329.423 173.642L329.879 171.866L330.335 170.09L330.762 168.425L331.172 166.924L331.612 165.312L332.052 163.7L332.492 162.088L332.932 160.476L333.337 158.989L333.806 157.397L334.311 155.681L334.816 153.965L335.321 152.249L335.826 150.533L336.349 148.755L336.872 146.924L337.377 145.155L337.882 143.386L338.387 141.617L338.892 139.848L339.363 138.197L339.862 136.546L340.397 134.777L340.932 133.008L341.467 131.239L342.002 129.47L342.511 127.785L343.049 126.074L343.613 124.279L344.177 122.484L344.741 120.689L345.305 118.894L345.822 117.246L346.367 115.624L346.961 113.855L347.555 112.086L348.149 110.317L348.743 108.548L349.353 106.732L349.933 104.968L350.497 103.252L351.061 101.536L351.625 99.82L352.189 98.104L352.689 96.579L353.221 95.108L353.819 93.446L354.417 91.784L355.015 90.122L355.613 88.46L356.184 86.874L356.834 85.112L357.511 83.274L358.188 81.436L358.865 79.598L359.475 77.938L360.083 76.404L360.76 74.693L361.437 72.982L362.114 71.271L362.805 69.525L363.425 67.937L364.031 66.385L364.637 64.833L365.243 63.281L365.761 61.949L366.427 60.386L367.184 58.604L367.941 56.822L368.678 55.088L369.326 53.591L369.994 52.047L370.662 50.503L371.265 49.107L371.971 47.565L372.743 45.875L373.397 44.438L373.987 43.263L374.7 41.837L375.075 41.05L375.689 40.088L376.726 38.411L377.495 37.13L377.102 37.553L376.52 38.304L374.982 39.462L365.66 41.734L355.058 36.017L352.596 30.964L352.417 30.308L352.483 31.236L352.457 32.718L352.448 34.154L352.348 35.352L352.22 37.094L352.101 38.707L351.971 40.162L351.83 41.745L351.69 43.328L351.578 44.612L351.389 46.134L351.166 47.956L350.943 49.778L350.728 51.541L350.517 53.129L350.298 54.776L350.079 56.423L349.86 58.07L349.653 59.632L349.415 61.322L349.166 63.096L348.917 64.87L348.668 66.644L348.426 68.364L348.144 70.242L347.854 72.174L347.564 74.106L347.274 76.038L346.974 78.041L346.726 79.828L346.488 81.544L346.25 83.26L346.012 84.976L345.774 86.692L345.55 88.309L345.297 89.979L345.03 91.748L344.763 93.517L344.496 95.286L344.229 97.055L343.957 98.858L343.685 100.714L343.418 102.536L343.151 104.358L342.884 106.18L342.617 108.002L342.331 109.951L342.072 111.9L341.83 113.721L341.588 115.542L341.346 117.363L341.104 119.184L340.864 120.99L340.622 122.769L340.378 124.563L340.134 126.357L339.891 128.151L339.648 129.945L339.391 131.842L339.164 133.687L338.95 135.429L338.736 137.171L338.522 138.913L338.308 140.655L338.101 142.336L337.852 144.238L337.595 146.201L337.338 148.164L337.081 150.127L336.812 152.19L336.579 154.159L336.358 156.027L336.137 157.895L335.916 159.763L335.669 161.868L335.49 163.783L335.333 165.461L335.176 167.139L335.019 168.817L334.87 170.407L334.68 172.179L334.482 174.038L334.285 175.897L334.06 178.078L333.93 179.983L333.821 181.566L333.712 183.149L333.594 184.923L333.502 186.908L333.417 188.702L333.326 190.771L333.324 192.471V193.897L333.331 195.789L333.457 197.838L333.736 201.048L334.351 203.676L335.302 206.727L342.834 215.732L358.449 216.569L366.279 209.896L368.052 206.719L368.861 205.004L369.826 202.65L370.732 200.387L371.445 198.372L371.995 196.772L372.663 194.845L373.232 193.001L373.689 191.486L374.146 189.97L374.604 188.45L375.151 186.653L375.697 184.86L376.242 183.067L376.857 181.054L377.359 179.241L377.794 177.649L378.229 176.057L378.664 174.465L379.059 173.008L379.541 171.428L380.065 169.714L380.589 168L381.113 166.286L381.652 164.522L382.229 162.601L382.791 160.729L383.353 158.857L383.915 156.985L384.449 155.204L385.019 153.392L385.618 151.489L386.217 149.586L386.816 147.683L387.387 145.867L387.887 144.341L388.416 142.729L388.945 141.117L389.474 139.505L390.003 137.893L390.492 136.4L391.02 134.91L391.589 133.301L392.158 131.692L392.727 130.083L393.296 128.474L393.852 126.902L394.41 125.358L394.981 123.776L395.552 122.194L396.123 120.612L396.694 119.03L397.251 117.487L397.923 115.659L398.609 113.793L399.295 111.927L399.981 110.061L400.669 108.191L401.321 106.416L401.971 104.645L402.621 102.874L403.271 101.103L403.874 99.462L404.473 97.914L405.121 96.237L405.768 94.56L406.415 92.883L407.007 91.349L407.597 89.909L408.244 88.327L408.891 86.745L409.538 85.163L410.12 83.738L410.7 82.407L411.347 80.92L411.994 79.433L412.641 77.946L413.224 76.604L413.923 75.088L414.687 73.428L415.451 71.768L416.166 70.214L416.839 68.819L417.561 67.319L418.283 65.819L418.859 64.618L419.611 63.232L420.515 61.549L421.319 60.052L422.061 58.765L422.905 57.294L423.538 56.187L424.101 55.339L424.886 54.132L425.076 53.794L425.51 53.368L426.327 52.425L426.957 51.792L425.757 52.733L421.571 54.668L413.218 53.863L407.26 49.212L406.32 47.753L406.212 47.4L406.146 47.553L406.323 48.383L406.368 49.044L406.528 50.472L406.614 51.179L406.613 52.199L406.653 53.942L406.686 55.411L406.669 56.681L406.655 58.225L406.641 59.769L406.628 61.111L406.573 62.691L406.514 64.473L406.456 66.255L406.402 67.875L406.306 69.693L406.203 71.672L406.1 73.651L406.004 75.489L405.905 77.058L405.798 78.769L405.691 80.48L405.584 82.191L405.475 83.928L405.366 85.76L405.259 87.566L405.152 89.372L405.045 91.178L404.946 92.856L404.812 94.629L404.669 96.53L404.526 98.431L404.383 100.332L404.229 102.392L404.112 104.484L404.005 106.417L403.898 108.35L403.791 110.283L403.693 112.066L403.549 113.849L403.395 115.781L403.241 117.713L403.087 119.645L402.933 121.577L402.773 123.508L402.613 125.439L402.453 127.37L402.293 129.301L402.125 131.359L401.993 133.323L401.869 135.16L401.745 136.997L401.621 138.834L401.499 140.644L401.376 142.359L401.252 144.1L401.128 145.841L401.004 147.582L400.883 149.273L400.745 151.202L400.604 153.182L400.463 155.162L400.312 157.295L400.21 159.27L400.116 161.091L400.022 162.912L399.913 165.14L399.903 167.131L399.898 168.715L399.893 170.299L399.888 171.883V173.678V175.473V177.268V178.694V180.12L399.914 182.479L400.171 184.993L400.398 186.968L400.634 188.467L401.367 191.925L407.45 201.1L424.01 203.863L433.093 196.35L434.396 194.065L435.457 192.032L436.547 189.342L437.311 187.359L437.969 185.541L438.54 183.948L439.233 182.019L439.821 180.169L440.294 178.659L440.767 177.149L441.266 175.557L441.809 173.767L442.326 172.059L442.843 170.351L443.329 168.741L443.782 167.314L444.267 165.789L444.752 164.264L445.237 162.739L445.744 161.146L446.296 159.398L446.826 157.717L447.356 156.036L447.886 154.355L448.364 152.834L448.917 151.218L449.523 149.444L450.129 147.67L450.735 145.896L451.368 144.041L451.996 142.121L452.597 140.282L453.198 138.443L453.799 136.604L454.326 134.986L454.925 133.336L455.602 131.467L456.279 129.598L456.956 127.729L457.648 125.82L458.227 124.196L458.791 122.612L459.355 121.028L459.919 119.444L460.483 117.86L460.971 116.485L461.612 114.859L462.332 113.024L463.052 111.189L463.772 109.354L464.424 107.69L465.11 106.057L465.865 104.254L466.62 102.451L467.375 100.648L468.198 98.679L468.947 96.772L469.63 95.032L470.313 93.292L470.996 91.552L471.567 90.094L472.167 88.729L472.885 87.084L473.603 85.439L474.321 83.794L475.029 82.171L475.702 80.643L476.384 79.093L477.066 77.543L477.748 75.993L478.419 74.468L479.216 72.674L480.024 70.855L480.832 69.036L481.458 67.615L482.074 66.427L482.882 64.846L483.69 63.265L484.516 61.648L485.247 60.186L485.96 58.76L486.673 57.334L487.257 56.16L488.015 54.773L488.906 53.136L489.543 51.949L490.106 51.071L490.938 49.751L491.73 48.494L492.759 46.893L493.285 46.023L493.676 45.594L493.822 45.341L493.721 45.496L492.158 46.529L485.601 48.396L475.932 45.183L471.731 39.804L471.305 38.697L471.411 39.082L471.466 40.015L471.593 41.361L471.627 42.415L471.686 43.946L471.733 44.9L471.673 46.171L471.605 48.019L471.545 49.671L471.466 51.059L471.377 52.643L471.288 54.227L471.207 55.672L471.076 57.354L470.935 59.175L470.794 60.996L470.665 62.668L470.5 64.459L470.322 66.399L470.144 68.339L469.977 70.164L469.806 71.728L469.623 73.407L469.44 75.086L469.257 76.765L469.07 78.489L468.887 80.309L468.709 82.083L468.531 83.857L468.353 85.631L468.208 87.103L467.997 88.607L467.748 90.413L467.499 92.219L467.25 94.025L466.977 96.005L466.737 98.016L466.518 99.853L466.299 101.69L466.08 103.527L465.861 105.364L465.642 107.201L465.423 109.038L465.204 110.875L464.985 112.712L464.77 114.516L464.555 116.256L464.336 118.03L464.117 119.804L463.898 121.578L463.664 123.483L463.467 125.325L463.284 127.035L463.101 128.745L462.918 130.455L462.74 132.116L462.562 133.682L462.379 135.297L462.196 136.912L462.013 138.527L461.817 140.26L461.627 142.239L461.449 144.1L461.271 145.961L461.081 147.948L460.931 149.736L460.792 151.399L460.653 153.062L460.523 154.616L460.355 156.408L460.177 158.309L459.962 160.67L459.872 162.715L459.806 164.299L459.731 166.192L459.728 168.403L459.736 170.819L459.849 172.76L459.952 174.383L460.057 175.609L460.819 180.087L466.021 188.385L480.385 192.766L490.7 186.953L492.249 185.041L493.838 182.829L495.271 180.051L496.017 178.456L496.944 176.309L497.723 174.49L498.361 173.018L499.004 171.535L499.859 169.55L500.696 167.242L501.338 165.443L501.953 163.717L502.497 162.243L503.068 160.695L503.639 159.147L504.166 157.714L504.79 156.126L505.458 154.423L506.126 152.72L506.775 151.066L507.468 149.333L508.181 147.551L508.894 145.769L509.611 143.977L510.226 142.448L510.837 140.929L511.448 139.41L512.059 137.891L512.631 136.468L513.234 135.011L513.876 133.459L514.518 131.907L515.16 130.355L515.823 128.75L516.494 127.116L517.144 125.535L517.794 123.954L518.444 122.373L519.012 120.991L519.611 119.639L520.295 118.089L520.979 116.539L521.663 114.989L522.361 113.406L523.023 111.886L523.67 110.399L524.317 108.912L524.964 107.425L525.519 106.149L526.107 104.903L526.79 103.448L527.473 101.993L528.156 100.538L528.821 99.121L529.605 97.456L530.407 95.753L531.209 94.05L531.867 92.644L532.569 91.317L533.421 89.696L534.272 88.075L535.137 86.429L535.908 84.938L536.665 83.473L537.422 82.008L538.095 80.704L538.966 79.125L539.923 77.386L540.589 76.159L541.23 75.182L542.18 73.704L543.152 72.191L543.934 70.934L544.694 69.712L544.787 69.458L545.198 69.019L546.072 67.969L546.762 67.229L546.22 67.587L545.435 68.229L542.967 69.265L536.337 69.691L529.823 66.531L527.206 63.383L526.841 62.839L526.741 62.433L526.624 62.53L526.735 63.366L526.703 63.928L526.734 65.408L526.755 66.556L526.723 67.914L526.695 69.604L526.669 71.048L526.63 72.307L526.585 73.812L526.54 75.317L526.503 76.623L526.423 78.088L526.334 79.751L526.245 81.414L526.166 82.901L526.045 84.506L525.911 86.288L525.777 88.07L525.654 89.714L525.488 91.516L525.31 93.456L525.132 95.396L524.935 97.558L524.807 99.427L524.694 101.074L524.581 102.721L524.468 104.368L524.355 106.025L524.242 107.714L524.13 109.393L524.018 111.072L523.906 112.751L523.795 114.42L523.684 116.057L523.572 117.704L523.46 119.351L523.348 120.998L523.236 122.645L523.124 124.292L523.012 125.939L522.9 127.586L522.788 129.233L522.678 130.859L522.546 132.818L522.412 134.798L522.278 136.778L522.135 138.912L522.038 140.888L521.949 142.71L521.86 144.532L521.772 146.335L521.684 148.059L521.595 149.801L521.506 151.543L521.408 153.471L521.364 155.201L521.326 156.746L521.288 158.291L521.251 159.8L521.193 161.56L521.134 163.355L521.066 165.749L521.138 167.879L521.197 169.41L521.283 171.43L521.502 173.74L521.71 175.844L521.923 177.472L522.456 180.678L523.375 183.435L526.029 188.568L536.367 195.476L547.592 194.653L554.186 190.436L556.525 187.89L558.019 186.073L559.64 183.666L561.115 181.387L562.266 179.254L563.018 177.817L563.813 176.3L564.726 174.518L565.596 172.817L566.679 170.698L567.548 168.808L568.216 167.343L568.884 165.878L569.584 164.343L570.368 162.568L571.12 160.863L571.872 159.158L572.637 157.424L573.452 155.574L574.254 153.752L575.056 151.93L575.893 150.028L576.605 148.364L577.282 146.78L577.959 145.196L578.636 143.612L579.299 142.061L579.998 140.446L580.711 138.799L581.424 137.152L582.137 135.505L582.85 133.858L583.567 132.212L584.284 130.566L585.001 128.92L585.718 127.274L586.376 125.764L587.068 124.253L587.821 122.607L588.574 120.961L589.327 119.315L590.028 117.781L590.729 116.31L591.481 114.728L592.233 113.146L592.985 111.564L593.748 109.959L594.48 108.419L595.201 106.902L595.922 105.385L596.643 103.868L597.275 102.539L598.086 100.95L598.989 99.174L599.892 97.398L600.651 95.903L601.404 94.564L602.307 92.947L603.21 91.33L604.117 89.704L604.935 88.237L605.748 86.778L606.561 85.319L607.114 84.318L607.909 83.078L608.978 81.388L609.941 79.865L610.783 78.605L611.733 77.179L612.37 76.207L612.933 75.488L613.824 74.326L614.382 73.584L615.283 72.567L615.821 71.903L616.134 71.668L616.514 71.298L616.685 71.206L614.699 72.213L607.721 73.246L599.621 69.637L596.537 65.798L596.433 65.723L596.411 65.459L596.36 65.711L596.513 66.66L596.507 67.261L596.56 68.74L596.603 69.884L596.6 71.397V73.245L596.602 74.852L596.558 76.156L596.508 77.7L596.458 79.244L596.425 80.39L596.317 81.734L596.183 83.476L596.049 85.218L595.911 87.013L595.769 88.967L595.63 90.868L595.491 92.769L595.362 94.535L595.231 96.048L595.088 97.695L594.945 99.342L594.802 100.989L594.673 102.491L594.509 104.056L594.331 105.767L594.153 107.478L593.975 109.189L593.813 110.747L593.617 112.337L593.403 114.079L593.189 115.821L592.975 117.563L592.741 119.473L592.545 121.384L592.367 123.126L592.189 124.868L592.011 126.61L591.851 128.184L591.657 129.759L591.443 131.501L591.229 133.243L591.015 134.985L590.783 136.88L590.588 138.743L590.41 140.454L590.232 142.165L590.054 143.876L589.861 145.732L589.705 147.525L589.562 149.172L589.419 150.819L589.276 152.466L589.14 154.037L588.969 155.822L588.791 157.683L588.613 159.544L588.42 161.563L588.273 163.463L588.139 165.205L588.005 166.947L587.862 168.822L587.735 170.908L587.616 172.862L587.502 174.737L587.389 176.348L587.27 178.038L587.12 180.314L587.11 182.327V183.753V185.179V186.763L587.123 189.018L587.252 190.797L587.508 193.274L589.481 199.614L601.76 209.033L616.236 205.048L620.634 199.879L622.177 196.839L622.967 195.027L623.824 192.736L624.512 190.825L625.145 189.151L625.724 187.614L626.336 185.992L627.014 184.162L627.66 182.417L628.306 180.672L628.885 179.128L629.464 177.584L630.043 176.04L630.622 174.496L631.237 172.83L631.852 171.164L632.467 169.497L633.042 167.937L633.707 166.219L634.413 164.395L635.119 162.571L635.828 160.74L636.431 159.179L637.032 157.625L637.633 156.071L638.234 154.517L638.798 153.057L639.397 151.565L640.033 149.979L640.669 148.393L641.305 146.807L641.962 145.17L642.618 143.502L643.254 141.884L643.89 140.266L644.526 138.648L645.106 137.169L645.726 135.692L646.403 134.076L647.08 132.46L647.757 130.844L648.389 129.334L649.026 127.889L649.708 126.339L650.39 124.789L651.072 123.239L651.769 121.656L652.429 120.136L653.075 118.649L653.721 117.162L654.367 115.675L654.866 114.519L655.558 113.104L656.405 111.362L657.252 109.62L658.076 107.924L658.861 106.35L659.669 104.729L660.477 103.108L661.179 101.698L661.827 100.482L662.584 99.056L663.341 97.63L664.157 96.094L665.105 94.241L665.996 92.499L666.562 91.36L667.11 90.528L668.009 89.107L668.813 87.836L669.548 86.717L670.38 85.45L670.872 84.68L671.672 83.659L672.664 82.367L673.485 81.398L673.653 81.141L673.652 81.205L673.688 81.121L670.935 82.524L662.513 82.857L655.368 78.52L653.368 75.232L653.036 74.455L653.073 74.521L653.028 74.888L653.079 76.019L653.061 76.938L653.049 78.311L653.048 79.097L652.949 80.147L652.819 81.783L652.683 83.5L652.559 85.482L652.44 87.383L652.334 89.09L652.208 90.44L652.066 91.984L651.924 93.528L651.796 94.926L651.632 96.484L651.454 98.187L651.276 99.89L651.113 101.452L650.9 103.132L650.67 104.953L650.44 106.774L650.21 108.595L649.987 110.417L649.764 112.239L649.541 114.061L649.34 115.713L649.096 117.405L648.829 119.266L648.562 121.127L648.269 123.178L648.031 125.231L647.817 127.093L647.603 128.955L647.394 130.775L647.176 132.515L646.953 134.297L646.73 136.079L646.488 138.023L646.278 139.887L646.086 141.588L645.894 143.289L645.708 144.927L645.514 146.446L645.314 148.028L645.114 149.61L644.873 151.597L644.692 153.902L644.542 155.801L644.396 157.636L644.251 159.259L644.102 160.947L643.939 162.858L643.868 164.454L643.809 165.827L643.738 167.559L643.734 169.581L643.746 171.866L643.87 173.674L644.094 176.07L646.002 182.591L655.785 191.376L670.022 190.175L676.457 184.315L678.166 181.437L678.831 180.14L679.687 178.455L680.623 176.607L681.416 174.895L682.048 173.512L682.894 171.658L683.725 169.535L684.357 167.889L684.97 166.288L685.514 164.901L686.077 163.469L686.64 162.037L687.282 160.404L687.938 158.658L688.517 157.114L689.096 155.57L689.632 154.139L690.257 152.549L690.925 150.846L691.593 149.143L692.242 147.489L692.941 145.758L693.66 143.978L694.379 142.198L695.042 140.557L695.626 139.174L696.268 137.653L696.91 136.132L697.552 134.611L698.238 132.984L698.923 131.294L699.565 129.71L700.207 128.126L700.849 126.542L701.374 125.238L701.965 123.932L702.678 122.348L703.391 120.764L704.104 119.18L704.792 117.651L705.48 116.154L706.193 114.602L706.906 113.05L707.619 111.498L708.306 110.003L708.992 108.539L709.705 107.018L710.418 105.497L711.131 103.976L711.827 102.492L712.665 100.751L713.52 98.973L714.375 97.195L715.06 95.764L715.782 94.448L716.682 92.789L717.582 91.13L718.49 89.456L719.309 87.94L720.12 86.44L720.931 84.94L721.506 83.867L722.067 82.985L722.877 81.683L723.687 80.381L724.476 79.114L725.405 77.618L726.355 76.087L727.056 74.944L727.694 74.063L728.592 72.801L729.287 71.822L730.236 70.595L730.828 69.785L731.302 69.347L731.634 68.972L731.741 68.944L730.649 69.602L725.412 71.101L717.635 69.431L713.124 65.403L712.149 63.89L711.937 63.228L711.736 62.896L711.801 63.224L711.762 63.934L711.812 65.674L711.844 67.123L711.88 68.655L711.904 69.594L711.84 70.796L711.767 72.591L711.715 73.946L711.606 75.05L711.465 76.594L711.324 78.138L711.177 79.748L711.03 81.516L710.889 83.218L710.748 84.92L710.62 86.463L710.449 88.125L710.263 89.946L710.077 91.767L709.926 93.262L709.7 94.877L709.433 96.817L709.166 98.757L708.867 100.938L708.657 102.826L708.475 104.473L708.293 106.12L708.111 107.767L707.971 109.062L707.771 110.358L707.522 112.005L707.273 113.652L707.024 115.299L706.746 117.141L706.506 119.015L706.292 120.694L706.078 122.373L705.864 124.052L705.653 125.711L705.442 127.339L705.228 128.986L705.014 130.633L704.8 132.28L704.592 133.885L704.325 135.822L704.053 137.801L703.781 139.78L703.492 141.884L703.254 143.87L703.031 145.731L702.808 147.592L702.573 149.556L702.383 151.322L702.205 152.985L702.027 154.648L701.832 156.481L701.683 158.195L701.549 159.739L701.415 161.283L701.293 162.698L701.128 164.311L700.95 166.053L700.728 168.296L700.64 170.224L700.581 171.65L700.525 172.997L700.44 174.661L700.33 177.454L700.477 179.691L700.615 181.289L702.667 188.793L715.95 197.98L729.849 193.322L734.049 187.7L735.141 185.418L735.855 183.808L736.736 181.642L737.649 179.377L738.362 177.356L738.91 175.755L739.534 173.946L740.088 172.308L740.569 170.879L741.049 169.45L741.435 168.289L741.959 166.932L742.583 165.308L743.207 163.684L743.934 161.785L744.647 159.683L745.263 157.859L745.879 156.035L746.401 154.476L746.909 153.156L747.515 151.572L748.121 149.988L748.727 148.404L749.316 146.865L749.929 145.258L750.559 143.606L751.189 141.954L751.819 140.302L752.4 138.775L753.053 137.153L753.756 135.407L754.459 133.661L755.162 131.915L755.884 130.123L756.606 128.299L757.309 126.521L758.012 124.743L758.715 122.965L759.348 121.359L760.014 119.784L760.753 118.037L761.492 116.29L762.231 114.543L762.97 112.796L763.723 111.056L764.476 109.316L765.229 107.576L765.982 105.836L766.66 104.269L767.374 102.734L768.165 101.027L768.956 99.319L769.747 97.611L770.5 95.987L771.218 94.49L771.975 92.91L772.732 91.33L773.489 89.75L774.162 88.343L774.833 87.031L775.59 85.546L776.347 84.061L777.104 82.576L777.876 81.059L778.738 79.325L779.585 77.622L780.432 75.919L781.134 74.499L781.839 73.238L782.693 71.698L783.547 70.158L784.359 68.694L785.074 67.424L785.831 66.078L786.588 64.732L787.235 63.579L788.081 62.192L789.041 60.613L789.833 59.308L790.491 58.311L791.323 57.044L791.694 56.441L792.374 55.667L793.143 54.731L793.701 54.163L793.199 54.505L792.457 55.14L790.148 56.132L782.735 56.443L776.183 52.896L774.479 50.908L773.942 49.708L773.527 48.853L773.675 49.371L773.766 50.277L773.897 51.118L773.879 51.74L773.922 53.272L773.956 54.491L773.936 55.974L773.919 57.769L773.909 59.086L773.829 60.112L773.727 61.616L773.626 63.12L773.522 64.67L773.424 66.378L773.328 68.041L773.232 69.704L773.161 70.993L773.01 72.401L772.826 74.183L772.642 75.965L772.453 77.797L772.27 79.748L772.092 81.649L771.914 83.55L771.733 85.481L771.544 87.49L771.357 89.469L771.17 91.448L770.999 93.264L770.838 94.717L770.66 96.333L770.482 97.949L770.304 99.565L770.126 101.181L769.948 102.797L769.77 104.413L769.592 106.029L769.414 107.645L769.236 109.261L769.058 110.877L768.88 112.493L768.702 114.109L768.524 115.725L768.369 117.144L768.127 118.927L767.86 120.907L767.593 122.887L767.31 124.989L767.072 126.972L766.849 128.833L766.626 130.694L766.387 132.695L766.188 134.576L766.003 136.318L765.818 138.06L765.619 139.946L765.473 141.674L765.339 143.258L765.205 144.842L765.058 146.589L764.917 148.599L764.787 150.446L764.644 152.522L764.575 154.387L764.516 156.024L764.449 157.958L764.446 159.628V161.001V162.374V164.037L764.491 166.918L764.805 169.317L765.082 171.09L766.666 176.521L774.935 185.226L788.35 186.066L795.347 181.697L797.144 179.8L798.764 177.925L800.387 175.513L801.489 173.784L802.41 172.187L803.106 170.963L803.999 169.393L804.942 167.555L805.696 166.067L806.482 164.518L807.405 162.714L808.296 160.972L809.248 159.109L810.058 157.441L810.809 155.893L811.56 154.345L812.366 152.683L813.222 150.866L814.024 149.163L814.826 147.46L815.645 145.72L816.335 144.223L817.008 142.764L817.681 141.305L818.354 139.846L818.978 138.49L819.677 137.041L820.425 135.489L821.173 133.937L821.921 132.385L822.661 130.851L823.436 129.254L824.22 127.638L825.004 126.022L825.788 124.406L826.51 122.917L827.266 121.428L828.086 119.812L828.906 118.196L829.726 116.58L830.482 115.088L831.269 113.593L832.12 111.975L832.971 110.357L833.822 108.739L834.61 107.239L835.401 105.804L836.256 104.252L837.111 102.7L837.966 101.148L838.718 99.78L839.504 98.442L840.395 96.921L841.286 95.4L842.177 93.879L842.909 92.624L843.636 91.492L844.527 90.098L845.418 88.704L846.309 87.31L847.271 85.804L848.366 84.028L849.391 82.365L850.416 80.702L851.298 79.266L852.176 77.947L853.201 76.403L854.226 74.859L855.155 73.457L855.993 72.252L856.929 70.906L857.865 69.56L858.556 68.555L859.491 67.359L860.679 65.828L861.764 64.428L862.729 63.239L863.798 61.919L864.162 61.413L864.413 61.227L865.423 60.277L865.846 59.852L866.581 59.332L866.705 59.17L866.661 59.284L864.96 59.81L862.908 60.288L860.042 60.028L854.524 57.615L852.354 55.652L851.788 54.688L851.325 54.032L851.467 54.411L851.456 54.654L851.728 55.98L851.775 56.091L851.745 56.553L851.848 58.244L851.932 59.609L851.964 61.237L852.009 63.191L852.046 64.68L851.997 65.917L851.942 67.62L851.887 69.323L851.846 70.663L851.724 72.201L851.58 74.101L851.436 76.001L851.301 77.782L851.168 79.342L851.025 81.021L850.882 82.7L850.739 84.379L850.622 85.785L850.438 87.318L850.224 89.124L850.01 90.93L849.796 92.736L849.578 94.574L849.356 96.475L849.138 98.344L848.92 100.213L848.702 102.082L848.481 103.981L848.264 105.944L848.05 107.877L847.836 109.81L847.622 111.743L847.408 113.676L847.19 115.608L846.972 117.54L846.754 119.472L846.536 121.404L846.335 123.186L846.1 124.969L845.846 126.901L845.592 128.833L845.338 130.765L845.071 132.8L844.845 134.741L844.631 136.579L844.417 138.417L844.203 140.255L843.993 142.059L843.777 143.799L843.557 145.572L843.337 147.345L843.117 149.118L842.885 150.992L842.692 152.74L842.51 154.387L842.328 156.034L842.146 157.681L841.951 159.446L841.756 161.465L841.573 163.365L841.39 165.265L841.197 167.276L841.054 169.05L840.92 170.713L840.786 172.376L840.625 174.446L840.538 176.754L840.469 178.655L840.394 180.816L840.392 182.661V184.245L840.397 186.237L840.514 188.466L840.664 190.975L840.929 193.005L841.471 196.207L842.399 198.959L844.625 203.477L853.365 210.278L865.34 210.452L872.807 205.837L875.099 203.284L876.672 201.313L878.318 198.865L879.509 197.026L880.534 195.355L881.409 193.919L882.576 191.996L883.552 190.147L884.253 188.795L884.954 187.443L885.685 186.035L886.505 184.429L887.295 182.879L888.085 181.329L888.898 179.735L889.811 177.949L890.702 176.207L891.593 174.465L892.472 172.746L893.244 171.249L894.028 169.728L894.812 168.207L895.596 166.686L896.341 165.241L897.157 163.701L898.012 162.085L898.867 160.469L899.722 158.853L900.635 157.128L901.552 155.341L902.413 153.665L903.274 151.989L904.135 150.313L904.904 148.813L905.742 147.28L906.673 145.572L907.604 143.864L908.535 142.156L909.435 140.504L910.366 138.818L911.328 137.076L912.29 135.334L913.252 133.592L914.214 131.85L915.183 130.111L916.152 128.372L917.121 126.633L918.09 124.894L919.029 123.209L919.966 121.555L920.933 119.847L921.9 118.139L922.867 116.431L923.802 114.778L924.737 113.157L925.704 111.48L926.671 109.803L927.638 108.126L928.399 106.798L929.187 105.591L930.189 104.041L931.191 102.491L932.193 100.941L933.185 99.408L934.141 97.938L935.108 96.452L936.075 94.966L937.042 93.48L937.875 92.196L938.705 91.006L939.671 89.615L940.637 88.224L941.603 86.833L942.476 85.576L943.495 84.165L944.609 82.621L945.723 81.077L946.684 79.74L947.598 78.559L948.667 77.173L949.736 75.787L950.534 74.742L951.279 73.888L952.304 72.7L953.329 71.512L954.135 70.572L955.099 69.548L956.287 68.281L956.967 67.532L957.564 67.023L958.693 66.02L959.205 65.537L959.973 64.975L960.353 64.608L960.512 64.558L959.299 64.903L957.872 65.302L955.259 65.187L949.938 63.28L947.825 61.668L947.111 60.612L946.535 59.82L946.445 59.336L946.32 59.332L946.58 60.661L946.644 61.674L946.783 63.262L946.864 64.216L946.851 65.429L946.871 67.278L946.884 68.644L946.817 69.744L946.744 71.327L946.671 72.91L946.604 74.317L946.495 75.921L946.378 77.702L946.261 79.483L946.153 81.111L946.029 82.899L945.895 84.839L945.761 86.779L945.638 88.577L945.507 90.082L945.364 91.729L945.221 93.376L945.078 95.023L944.932 96.708L944.786 98.489L944.643 100.231L944.5 101.973L944.357 103.715L944.214 105.457L944.076 107.2L943.938 108.943L943.8 110.686L943.662 112.429L943.524 114.172L943.368 115.913L943.212 117.654L943.056 119.395L942.9 121.136L942.732 123.034L942.597 124.9L942.472 126.61L942.347 128.32L942.222 130.03L942.099 131.72L941.976 133.347L941.852 134.993L941.728 136.639L941.604 138.285L941.482 139.899L941.329 141.805L941.174 143.744L941.019 145.683L940.835 148.192L940.825 150.544V152.326V154.108V155.89V157.474V159.058V160.642L940.833 162.744L940.976 165.162L941.095 167.063L941.247 169.406L941.471 171.378L941.649 172.909L941.964 175.379L942.6 178.209L943.322 181.14L944.199 183.576L945.569 186.869L947.34 189.649L950.253 193.25L953.82 195.876L958.332 198.117L963.32 198.969L966.931 199.041L970.778 198.329L974.401 197.292L978.075 195.379L980.442 193.983L982.385 192.557L983.509 191.706L985.033 190.546L986.736 189.123L988.048 188.021L989.753 186.575L991.569 184.855L993.003 183.491L994.61 181.958L995.99 180.566L997.2 179.345L998.41 178.124L999.666 176.855L1001.06 175.428L1002.4 174.048L1003.74 172.668L1005.14 171.235L1006.34 169.986L1007.49 168.791L1008.64 167.596L1009.79 166.401L1010.98 165.159L1012.25 163.822L1013.47 162.532L1014.69 161.242L1015.91 159.952L1016.97 158.837L1018.09 157.72L1019.39 156.431L1020.68 155.142L1021.97 153.852L1023.26 152.572L1024.57 151.261L1025.9 149.94L1027.23 148.619L1028.56 147.298L1029.73 146.134L1030.96 144.963L1032.36 143.637L1033.75 142.311L1035.14 140.985L1036.46 139.733L1037.81 138.479L1039.24 137.152L1040.67 135.825L1042.1 134.498L1043.38 133.311L1044.65 132.185L1046.08 130.921L1047.51 129.657L1048.94 128.393L1050.29 127.198L1051.67 126.003L1053.14 124.739L1054.6 123.475L1056.07 122.211L1057.28 121.159L1058.49 120.194L1059.95 119.022L1061.41 117.85L1062.87 116.678L1064.07 115.709L1065.31 114.798L1066.81 113.689L1068.3 112.58L1069.8 111.471L1071.08 110.518L1072.33 109.657L1073.79 108.643L1075.25 107.629L1076.71 106.615L1077.85 105.818L1078.99 105.105L1080.45 104.182L1081.91 103.259L1083.36 102.336L1084.52 101.601L1085.67 100.87L1087.14 99.956L1088.6 99.04L1090.06 98.122L1091.1 97.431L1092.11 96.838L1093.53 96.025L1094.94 95.21L1096.36 94.392L1097.41 93.749L1098.23 91.723L1099.24 89.1L1100.07 86.047L1100.7 82.565L1101.15 78.654L1102.96 77.862L1099.86 70.765L1098.05 71.557L1094.88 69.23L1091.89 67.332L1089.09 65.863L1086.48 64.824L1083.68 64.383L1081.8 65.197L1080.3 65.836L1078.79 66.478L1077.29 67.123L1075.37 67.987L1073.42 69.006L1071.89 69.799L1070.36 70.594L1068.83 71.391L1066.99 72.371L1065.22 73.474L1063.75 74.389L1062.29 75.304L1060.82 76.219L1059.04 77.343L1057.26 78.573L1055.8 79.587L1054.33 80.601L1052.87 81.615L1051.19 82.781L1049.48 84.046L1047.99 85.155L1046.49 86.264L1044.99 87.373L1043.23 88.68L1041.51 90.055L1040.05 91.227L1038.59 92.399L1037.13 93.571L1035.42 94.95L1033.71 96.432L1032.25 97.702L1030.79 98.972L1029.33 100.242L1027.79 101.581L1026.29 102.921L1024.87 104.191L1023.45 105.461L1022.02 106.731L1020.45 108.14L1018.87 109.614L1017.45 110.948L1016.03 112.282L1014.61 113.616L1013.11 115.024L1011.64 116.433L1010.26 117.768L1008.87 119.103L1007.48 120.438L1005.94 121.929L1004.47 123.426L1003.16 124.766L1001.85 126.106L1000.54 127.446L999.222 128.796L997.939 130.114L996.665 131.422L995.391 132.73L994.117 134.038L992.676 135.519L991.309 137.002L990.107 138.31L988.905 139.618L987.703 140.926L986.545 142.187L985.458 143.353L984.327 144.566L983.196 145.779L982.065 146.992L980.985 148.151L979.706 149.49L978.376 150.883L977.046 152.276L975.763 153.621L974.613 154.808L973.417 156.042L972.221 157.276L971.195 158.339L969.95 159.552L968.533 160.933L967.497 161.958L966.588 162.729L965.287 163.844L964.376 164.638L963.643 165.167L962.51 166.006L962.195 166.27L961.532 166.617L962.176 166.446L963.126 166.043L964.3 165.965L965.772 165.879L968.621 166.572L971.35 167.704L973.135 169.221L974.622 170.763L974.968 171.484L975.268 171.926L975.075 171.51L974.906 170.639L974.65 169.667L974.608 169.074L974.43 167.543L974.297 166.453L974.212 164.994L974.093 163.093L973.998 161.709L974.006 160.643V159.059V157.475V155.891V154.109V152.327V150.545L973.996 149.333L974.079 147.961L974.191 146.019L974.303 144.077L974.417 142.102L974.509 140.421L974.599 138.772L974.689 137.123L974.779 135.474L974.87 133.806L974.961 132.074L975.05 130.362L975.139 128.65L975.228 126.938L975.306 125.383L975.423 123.796L975.552 122.052L975.681 120.308L975.81 118.564L975.939 116.82L976.086 115.078L976.233 113.336L976.38 111.594L976.527 109.852L976.674 108.11L976.817 106.368L976.96 104.626L977.103 102.884L977.246 101.142L977.385 99.438L977.524 97.829L977.667 96.182L977.81 94.535L977.953 92.888L978.107 91.098L978.251 89.015L978.385 87.075L978.519 85.135L978.662 83.042L978.732 81.106L978.794 79.323L978.855 77.54L978.924 75.58L978.946 73.819L978.962 72.234L978.978 70.649L979 68.58L978.894 66.249L978.796 64.402L978.664 61.919L978.389 59.705L978.172 58.125L977.879 55.97L977.426 53.497L976.588 49.691L975.251 46.514L973.427 43.029L971.109 40.231L967.392 36.877L958.507 33.703L953.577 33.905L949.833 34.62L946.125 36.233L943.789 37.451L941.318 39.143L939.235 40.64L937.49 42.164L936.361 43.167L934.701 44.665L933.004 46.45L931.816 47.717L930.404 49.228L929.161 50.664L928.136 51.852L927.111 53.04L925.806 54.562L924.466 56.29L923.397 57.676L922.328 59.062L921.103 60.653L919.837 62.405L918.723 63.949L917.609 65.493L916.4 67.171L915.348 68.702L914.39 70.099L913.432 71.496L912.474 72.893L911.379 74.491L910.288 76.186L909.33 77.678L908.372 79.17L907.414 80.662L906.445 82.17L905.441 83.741L904.447 85.296L903.453 86.851L902.459 88.406L901.251 90.304L900.088 92.334L899.13 94.016L898.172 95.698L897.214 97.38L896.225 99.117L895.236 100.886L894.278 102.599L893.32 104.312L892.362 106.025L891.374 107.792L890.388 109.592L889.432 111.338L888.476 113.084L887.52 114.83L886.564 116.576L885.602 118.318L884.64 120.06L883.678 121.802L882.716 123.544L881.723 125.343L880.77 127.113L879.848 128.826L878.926 130.539L878.004 132.252L876.988 134.141L876.046 136L875.196 137.682L874.346 139.364L873.496 141.046L872.702 142.618L871.904 144.124L871.049 145.74L870.194 147.356L869.339 148.972L868.444 150.663L867.621 152.259L866.837 153.78L866.053 155.301L865.269 156.822L864.473 158.366L863.57 160.132L862.679 161.874L861.788 163.616L860.919 165.315L860.128 166.81L859.314 168.348L858.5 169.886L857.716 171.369L857.021 172.654L856.297 173.994L855.573 175.334L855.123 176.177L854.508 177.106L853.601 178.522L852.844 179.702L851.896 181.031L851.404 181.751L851.016 181.997L851.348 181.662L855.607 179.265L865.087 179.439L872.045 184.656L873.558 187.273L873.773 188.124L873.959 188.633L873.867 187.97L873.838 186.835L873.776 185.42L873.781 184.244V182.66L873.779 181.337L873.822 179.697L873.871 177.796L873.903 176.302L874.009 175.046L874.143 173.383L874.277 171.72L874.401 170.167L874.564 168.376L874.737 166.475L874.91 164.574L875.072 162.791L875.234 161.261L875.408 159.613L875.582 157.965L875.756 156.317L875.919 154.77L876.115 153.096L876.323 151.321L876.531 149.546L876.739 147.771L876.951 145.962L877.169 144.091L877.383 142.253L877.597 140.415L877.811 138.577L878.013 136.843L878.245 135.013L878.49 133.08L878.735 131.147L878.98 129.214L879.244 127.131L879.471 125.048L879.681 123.115L879.891 121.182L880.101 119.249L880.311 117.316L880.525 115.383L880.739 113.45L880.953 111.517L881.167 109.584L881.377 107.682L881.583 105.843L881.793 103.973L882.003 102.103L882.213 100.233L882.419 98.396L882.629 96.623L882.843 94.817L883.057 93.011L883.271 91.205L883.515 89.127L883.683 87.175L883.826 85.496L883.969 83.817L884.112 82.138L884.264 80.339L884.397 78.318L884.521 76.416L884.645 74.514L884.79 72.25L884.838 70.184L884.872 68.481L884.906 66.778L884.946 64.61L884.865 62.192L884.791 60.239L884.704 57.96L884.55 55.946L884.416 54.257L884.148 51.34L883.601 48.81L883.279 47.496L882.674 45.099L881.746 42.626L880.214 39.119L878.222 36.254L874.626 32.39L865.544 28.393L860.539 28.291L856.349 28.928L852.153 30.721L849.614 32.102L847.065 33.999L845.126 35.538L843.529 37.014L842.519 37.964L840.75 39.679L838.975 41.813L837.906 43.133L836.732 44.584L835.441 46.247L834.253 47.778L832.812 49.644L831.632 51.332L830.696 52.678L829.76 54.024L828.727 55.512L827.607 57.199L826.582 58.743L825.557 60.287L824.386 62.056L823.218 63.947L822.193 65.61L821.168 67.273L820.213 68.824L819.393 70.106L818.502 71.5L817.611 72.894L816.72 74.288L815.665 75.944L814.615 77.73L813.724 79.251L812.833 80.772L811.942 82.293L810.946 83.996L809.988 85.732L809.133 87.284L808.278 88.836L807.423 90.388L806.504 92.058L805.581 93.789L804.721 95.402L803.861 97.015L803.001 98.628L802.077 100.365L801.194 102.104L800.374 103.72L799.554 105.336L798.734 106.952L797.851 108.694L797.004 110.437L796.22 112.053L795.436 113.669L794.652 115.285L793.859 116.919L793.102 118.49L792.354 120.042L791.606 121.594L790.858 123.146L790.06 124.801L789.33 126.36L788.648 127.815L787.966 129.27L787.284 130.725L786.62 132.143L785.836 133.809L785.034 135.512L784.232 137.215L783.484 138.804L782.775 140.231L782.011 141.772L781.247 143.313L780.543 144.733L779.713 146.355L778.822 148.097L777.963 149.778L777.205 151.186L776.415 152.655L775.814 153.774L775.281 154.632L774.551 155.836L774.047 156.668L773.367 157.632L773.208 157.913L773.224 157.781L773.417 157.626L777.919 155.158L789.552 155.998L796.396 162.802L797.267 165.065L797.187 164.462L797.145 164.485L797.19 164.039V162.376V161.003V159.63L797.187 158.554L797.238 157.214L797.297 155.577L797.347 154.168L797.442 152.547L797.55 150.698L797.646 149.012L797.767 147.591L797.901 146.007L798.035 144.423L798.156 142.983L798.314 141.384L798.486 139.641L798.658 137.898L798.815 136.294L799.022 134.572L799.245 132.711L799.468 130.85L799.676 129.111L799.927 127.253L800.194 125.273L800.461 123.293L800.754 121.116L800.955 119.303L801.133 117.687L801.311 116.071L801.489 114.455L801.667 112.839L801.845 111.223L802.023 109.607L802.201 107.991L802.379 106.375L802.557 104.759L802.735 103.143L802.913 101.527L803.091 99.911L803.269 98.295L803.464 96.516L803.649 94.372L803.819 92.391L803.989 90.41L804.156 88.459L804.331 86.588L804.509 84.687L804.687 82.786L804.86 80.935L805.028 79.203L805.201 77.42L805.373 75.637L805.578 73.481L805.685 71.443L805.768 69.779L805.851 68.115L805.931 66.497L806.005 65.037L806.082 63.531L806.159 62.025L806.257 60.041L806.247 57.767L806.23 55.972L806.21 53.864L806.126 52.021L806.051 50.49L805.914 48.049L805.51 45.405L805.067 42.826L804.502 40.652L803.374 37.104L801.768 34.162L798.995 30.431L789.948 25.3L779.684 25.928L775.593 28.029L773.068 29.772L770.606 32.173L769.204 33.664L767.656 35.579L766.019 37.656L764.727 39.587L763.895 40.854L762.89 42.391L761.781 44.254L760.84 45.843L759.785 47.624L758.917 49.164L758.16 50.51L757.403 51.856L756.603 53.279L755.722 54.904L754.883 56.453L754.044 58.002L753.056 59.83L752.065 61.815L751.218 63.518L750.371 65.221L749.54 66.892L748.815 68.354L748.075 69.847L747.335 71.34L746.595 72.833L745.769 74.499L744.945 76.26L744.205 77.848L743.465 79.436L742.725 81.024L741.946 82.695L741.131 84.492L740.354 86.206L739.577 87.92L738.8 89.634L737.945 91.52L737.126 93.438L736.382 95.183L735.638 96.928L734.894 98.673L734.15 100.418L733.392 102.156L732.634 103.894L731.876 105.632L731.118 107.37L730.287 109.28L729.494 111.223L728.771 112.993L728.048 114.763L727.325 116.533L726.621 118.257L725.917 119.95L725.195 121.689L724.473 123.428L723.751 125.167L722.978 127.03L722.276 128.798L721.623 130.441L720.97 132.084L720.317 133.727L719.647 135.415L719.024 137.044L718.418 138.628L717.812 140.212L717.206 141.796L716.502 143.644L715.776 145.729L715.144 147.548L714.512 149.367L713.978 150.909L713.457 152.257L712.833 153.881L712.209 155.505L711.486 157.395L710.892 159.085L710.392 160.507L709.892 161.929L709.466 163.143L708.902 164.502L708.262 166.069L707.787 167.216L707.096 168.594L706.374 170.071L705.84 170.996L705.685 171.249L707.746 168.795L719.863 165.088L732.077 173.324L733.772 177.976L733.731 177.198L733.7 177.059L733.769 176.367L733.862 174.546L733.925 173.042L733.984 171.616L734.015 170.692L734.15 169.45L734.328 167.708L734.519 165.836L734.664 164.162L734.798 162.618L734.932 161.074L735.05 159.699L735.211 158.205L735.389 156.542L735.567 154.879L735.734 153.318L735.945 151.559L736.168 149.698L736.391 147.837L736.598 146.101L736.844 144.245L737.106 142.264L737.368 140.283L737.636 138.26L737.855 136.57L738.069 134.923L738.283 133.276L738.497 131.629L738.713 129.962L738.929 128.263L739.143 126.584L739.357 124.905L739.571 123.226L739.759 121.742L739.98 120.289L740.229 118.642L740.478 116.995L740.727 115.348L741.026 113.35L741.242 111.35L741.416 109.702L741.59 108.054L741.764 106.406L741.91 104.999L742.146 103.299L742.413 101.359L742.68 99.419L742.989 97.153L743.195 95.005L743.366 93.183L743.537 91.361L743.722 89.38L743.861 87.518L743.987 85.815L744.113 84.112L744.234 82.475L744.354 80.996L744.48 79.451L744.606 77.906L744.764 75.921L744.831 73.685L744.877 71.889L744.932 69.5L744.837 67.377L744.754 65.847L744.668 64.234L744.54 62.331L744.322 59.398L743.852 56.875L743.116 53.692L742.013 50.97L740.147 47.398L733.498 41.152L722.87 38.849L714.425 41.615L711.551 43.699L709.876 45.097L708.069 46.939L706.404 48.719L704.679 50.919L703.311 52.702L702.224 54.257L701.34 55.529L700.196 57.183L698.997 59.103L698.047 60.634L697.075 62.2L696.26 63.547L695.466 64.859L694.672 66.171L693.63 67.903L692.601 69.84L691.808 71.35L691.015 72.86L690.23 74.354L689.356 76.006L688.474 77.674L687.592 79.342L686.531 81.353L685.523 83.486L684.685 85.272L683.847 87.058L682.992 88.881L682.262 90.439L681.549 91.96L680.836 93.481L680.123 95.002L679.384 96.58L678.645 98.189L677.932 99.741L677.219 101.293L676.506 102.845L675.768 104.453L675.03 106.092L674.317 107.676L673.604 109.26L672.891 110.844L672.056 112.706L671.298 114.57L670.656 116.154L670.014 117.738L669.372 119.322L668.774 120.8L668.177 122.215L667.535 123.736L666.893 125.257L666.251 126.778L665.552 128.436L664.789 130.359L664.082 132.143L663.375 133.927L662.649 135.76L661.962 137.511L661.294 139.214L660.626 140.917L659.914 142.733L659.292 144.391L658.713 145.935L658.134 147.479L657.632 148.822L657.116 150.04L656.52 151.459L655.924 152.878L655.31 154.342L654.617 156.015L653.942 157.643L653.466 158.794L653.005 159.686L652.33 161.049L651.816 162.083L651.149 163.245L650.401 164.57L649.819 165.49L650.28 164.83L654.576 161.188L667.031 160.303L675.745 167.821L676.941 171.174L676.987 171.194L676.933 170.626L676.945 169.584L676.941 168.28L676.989 167.266L677.048 165.893L677.096 164.744L677.17 163.276L677.258 161.584L677.35 159.828L677.442 157.861L677.529 155.958L677.586 154.461L677.702 153.28L677.858 151.693L678.014 150.106L678.177 148.456L678.348 146.689L678.512 144.985L678.676 143.281L678.822 141.739L679.025 140.119L679.248 138.337L679.471 136.555L679.699 134.731L679.935 132.828L680.166 130.968L680.397 129.108L680.604 127.438L680.845 125.767L681.112 123.906L681.379 122.045L681.67 120.014L681.914 118.023L682.137 116.201L682.36 114.379L682.583 112.557L682.799 110.734L683.015 108.911L683.231 107.088L683.463 105.125L683.657 103.281L683.835 101.578L684.013 99.875L684.206 98.027L684.345 96.336L684.471 94.791L684.597 93.246L684.738 91.507L684.87 89.412L684.989 87.511L685.103 85.691L685.205 84.135L685.312 82.497L685.451 80.273L685.45 78.313L685.438 76.94L685.42 75.113L685.293 73.076L685.07 70.275L684.572 67.807L683.705 64.496L679.923 57.723L670.639 51.802L659.722 52.452L654.118 55.756L652.372 57.257L650.589 58.905L648.797 61.024L647.657 62.431L646.332 64.149L644.816 66.138L643.645 67.902L642.813 69.169L641.885 70.585L640.907 72.165L640.024 73.596L638.79 75.616L637.574 77.962L636.683 79.704L635.849 81.336L635.15 82.651L634.393 84.077L633.636 85.503L632.769 87.138L631.867 88.976L631.071 90.603L630.275 92.23L629.456 93.904L628.587 95.693L627.74 97.435L626.893 99.177L625.892 101.247L625.108 103.069L624.471 104.56L623.834 106.051L623.197 107.542L622.574 109L621.916 110.522L621.244 112.077L620.572 113.632L619.9 115.187L619.182 116.847L618.46 118.569L617.783 120.185L617.106 121.801L616.429 123.417L615.694 125.172L614.991 126.925L614.344 128.539L613.697 130.153L613.05 131.767L612.423 133.33L611.797 134.861L611.15 136.443L610.503 138.025L609.856 139.607L609.172 141.283L608.524 142.927L607.913 144.477L607.302 146.027L606.691 147.577L606.082 149.121L605.365 150.934L604.646 152.753L603.927 154.572L603.167 156.497L602.494 158.263L601.862 159.923L601.23 161.583L600.598 163.243L600.019 164.787L599.44 166.331L598.861 167.875L598.282 169.419L597.621 171.159L596.96 172.899L596.331 174.554L595.754 175.995L595.145 177.52L594.59 178.909L593.853 180.483L593.284 181.677L592.826 182.4L593.121 181.894L595.381 179.259L608.075 176.224L619.285 184.376L620.545 187.865L620.623 188.125L620.574 187.686L620.587 186.773V185.189V183.763V182.337L620.577 181.499L620.665 180.396L620.784 178.706L620.908 176.937L621.032 174.904L621.151 172.95L621.261 171.128L621.385 169.518L621.519 167.776L621.653 166.034L621.774 164.449L621.938 162.745L622.116 160.884L622.294 159.023L622.479 157.086L622.628 155.362L622.771 153.715L622.914 152.068L623.057 150.421L623.186 148.919L623.35 147.354L623.528 145.643L623.706 143.932L623.884 142.221L624.046 140.663L624.242 139.073L624.456 137.331L624.67 135.589L624.884 133.847L625.118 131.937L625.314 130.026L625.492 128.284L625.67 126.542L625.848 124.8L626.008 123.226L626.202 121.651L626.416 119.909L626.63 118.167L626.844 116.425L627.076 114.53L627.271 112.667L627.449 110.956L627.627 109.245L627.805 107.534L627.998 105.678L628.154 103.885L628.297 102.238L628.44 100.591L628.583 98.944L628.737 97.162L628.876 95.126L629.005 93.225L629.134 91.324L629.259 89.476L629.389 87.787L629.523 86.045L629.657 84.303L629.816 82.163L629.872 80.22L629.912 78.675L629.952 77.13L629.997 75.345L629.999 73.256V71.408L629.996 69.225L629.92 67.412L629.854 65.934L629.729 63.578L629.347 60.884L628.761 57.492L627.848 54.693L626.853 52.084L621.987 45.077L611.036 40.201L601.207 41.868L597.439 44.142L595.828 45.318L594.069 46.849L592.244 48.515L590.287 50.702L588.693 52.536L587.469 54.117L586.578 55.279L585.359 56.883L584.095 58.762L583.145 60.188L582.086 61.779L580.91 63.635L579.841 65.325L578.497 67.464L577.446 69.394L576.655 70.865L575.864 72.336L575.078 73.799L574.203 75.421L573.323 77.051L572.444 78.681L571.415 80.589L570.392 82.658L569.513 84.446L568.634 86.234L567.663 88.209L566.869 89.922L566.165 91.447L565.461 92.972L564.757 94.497L564.063 95.999L563.329 97.562L562.584 99.148L561.839 100.734L561.095 102.32L560.299 104.017L559.503 105.778L558.759 107.427L558.015 109.076L557.271 110.725L556.466 112.509L555.698 114.294L554.989 115.943L554.28 117.592L553.571 119.241L552.862 120.89L552.149 122.537L551.436 124.184L550.723 125.831L550.01 127.478L549.283 129.158L548.592 130.775L547.915 132.359L547.238 133.943L546.561 135.527L545.918 137.031L545.151 138.773L544.349 140.595L543.547 142.417L542.758 144.21L542.008 145.882L541.245 147.583L540.482 149.284L539.751 150.914L539.114 152.309L538.446 153.774L537.778 155.239L537.311 156.28L536.612 157.54L535.7 159.219L534.831 160.817L534.081 162.151L533.288 163.566L532.895 164.284L532.231 165.173L531.713 165.934L531.425 166.176L531.982 165.689L535.368 163.69L544.454 163.184L552.653 168.508L554.594 171.74L554.8 172.597L554.976 173.11L554.833 172.045L554.685 170.506L554.547 169.172L554.514 168.13L554.455 166.599L554.408 165.666L554.458 164.47L554.517 162.675L554.578 160.844L554.631 159.264L554.682 157.72L554.733 156.176L554.778 154.817L554.859 153.26L554.948 151.518L555.037 149.776L555.127 148.015L555.217 146.175L555.306 144.353L555.395 142.531L555.476 140.864L555.6 139.038L555.734 137.058L555.868 135.078L556.003 133.076L556.106 131.407L556.208 129.759L556.31 128.111L556.412 126.463L556.514 124.815L556.616 123.167L556.718 121.519L556.82 119.871L556.922 118.223L557.025 116.565L557.128 114.875L557.23 113.196L557.332 111.517L557.434 109.838L557.535 108.169L557.636 106.531L557.737 104.883L557.838 103.235L557.939 101.587L558.024 100.161L558.183 98.442L558.361 96.502L558.539 94.562L558.729 92.483L558.874 90.563L559.008 88.781L559.142 86.999L559.288 85.04L559.388 83.2L559.477 81.537L559.566 79.874L559.665 78.012L559.717 76.309L559.762 74.804L559.807 73.299L559.857 71.549L559.831 69.614L559.803 67.924L559.771 65.903L559.673 64.094L559.585 62.617L559.434 60.222L559.01 57.573L558.358 54.186L557.367 51.404L556.111 48.484L551.356 42.168L542.347 37.741L532.509 38.484L528.259 40.628L525.692 42.379L523.189 44.796L521.919 46.115L520.476 47.758L518.571 50.012L517.12 52.187L516.335 53.393L515.572 54.565L514.643 56.009L513.693 57.487L512.433 59.467L511.198 61.725L510.254 63.471L509.224 65.377L508.382 67.004L507.625 68.469L506.868 69.934L506.124 71.374L505.296 72.975L504.454 74.601L503.612 76.227L502.621 78.148L501.675 80.148L500.873 81.851L500.071 83.554L499.251 85.295L498.562 86.793L497.89 88.253L497.218 89.713L496.546 91.173L495.779 92.842L495.051 94.544L494.415 96.036L493.779 97.528L493.143 99.02L492.522 100.478L491.866 101.999L491.195 103.554L490.524 105.109L489.853 106.664L489.097 108.417L488.381 110.203L487.748 111.79L487.115 113.377L486.482 114.964L485.87 116.498L485.25 117.997L484.608 119.549L483.966 121.101L483.324 122.653L482.643 124.301L482.004 125.919L481.403 127.442L480.802 128.965L480.201 130.488L479.604 132.001L478.895 133.773L478.182 135.555L477.469 137.337L476.737 139.168L476.049 140.92L475.381 142.623L474.713 144.326L474 146.143L473.369 147.799L472.782 149.34L472.195 150.881L471.58 152.496L470.888 154.361L470.224 156.152L469.754 157.435L469.302 158.407L468.638 159.881L467.969 161.366L467.144 163.19L466.467 164.687L465.966 165.627L466.152 165.384L466.493 164.756L466.795 164.428L475.328 160.2L488.267 163.947L492.4 170.344L492.984 172.763L492.911 171.93L492.835 170.701L492.77 169.79L492.778 168.405L492.775 166.814L492.819 165.539L492.871 163.955L492.9 162.832L493.042 161.392L493.22 159.491L493.408 157.481L493.545 155.708L493.673 154.044L493.801 152.38L493.919 150.842L494.086 149.106L494.264 147.245L494.442 145.384L494.608 143.641L494.769 142.143L494.942 140.527L495.115 138.911L495.288 137.295L495.467 135.629L495.646 133.868L495.819 132.157L495.992 130.446L496.165 128.735L496.324 127.156L496.518 125.513L496.727 123.738L496.936 121.963L497.145 120.188L497.358 118.38L497.571 116.509L497.78 114.671L497.989 112.833L498.198 110.995L498.407 109.157L498.616 107.319L498.825 105.481L499.034 103.643L499.243 101.805L499.431 100.141L499.657 98.509L499.906 96.703L500.155 94.897L500.404 93.091L500.692 90.984L500.903 88.908L501.081 87.134L501.259 85.36L501.437 83.586L501.611 81.858L501.78 80.224L501.954 78.544L502.128 76.864L502.302 75.184L502.488 73.389L502.677 71.333L502.855 69.393L503.033 67.453L503.224 65.363L503.362 63.391L503.489 61.569L503.616 59.747L503.752 57.786L503.85 56.063L503.939 54.479L504.028 52.895L504.127 51.115L504.185 49.071L504.236 47.223L504.295 44.798L504.223 42.69L504.164 41.159L504.079 39.15L503.85 36.853L503.548 34.142L503.12 31.992L502.16 28.351L496.177 19.804L484.369 15.957L475.317 18.775L472.15 21.234L470.445 22.814L468.631 24.937L467.061 26.884L465.448 29.34L464.339 31.066L463.468 32.449L462.636 33.769L461.536 35.531L460.391 37.618L459.5 39.255L458.476 41.141L457.634 42.819L456.921 44.245L456.208 45.671L455.513 47.06L454.735 48.611L453.939 50.198L453.143 51.785L452.155 53.765L451.178 55.987L450.382 57.811L449.586 59.635L448.779 61.484L448.096 63.063L447.424 64.618L446.752 66.173L446.08 67.728L445.398 69.305L444.68 70.977L443.972 72.627L443.264 74.277L442.556 75.927L441.73 77.857L440.946 79.884L440.275 81.629L439.604 83.374L438.933 85.119L438.328 86.697L437.654 88.34L436.912 90.149L436.17 91.958L435.428 93.767L434.617 95.746L433.844 97.757L433.138 99.597L432.432 101.437L431.726 103.277L430.941 105.326L430.3 107.12L429.736 108.704L429.172 110.288L428.608 111.872L428.044 113.456L427.494 115L426.831 116.829L426.154 118.698L425.477 120.567L424.8 122.436L424.045 124.525L423.36 126.582L422.749 128.418L422.138 130.254L421.527 132.09L420.943 133.845L420.364 135.539L419.758 137.313L419.152 139.087L418.546 140.861L417.887 142.794L417.296 144.631L416.757 146.309L416.218 147.987L415.679 149.665L415.161 151.275L414.67 152.724L414.157 154.24L413.644 155.756L413.131 157.272L412.586 158.887L412.002 160.683L411.45 162.38L410.898 164.077L410.372 165.692L409.891 167.109L409.384 168.608L408.877 170.107L408.485 171.267L407.99 172.506L407.373 174.081L406.843 175.431L406.182 176.933L405.847 177.728L405.66 177.913L405.716 177.846L413.017 172.55L428.151 174.996L433.165 181.954L433.541 183.194L433.421 182.475L433.291 181.282L433.191 180.628L433.217 180.135V178.709V177.283V175.488V173.693V171.898L433.212 170.314L433.207 168.73L433.202 167.146L433.192 165.969L433.261 164.553L433.345 162.731L433.429 160.909L433.505 159.241L433.621 157.414L433.747 155.433L433.873 153.452L434.002 151.421L434.095 149.627L434.185 147.883L434.275 146.139L434.365 144.395L434.456 142.625L434.547 140.76L434.637 138.921L434.727 137.082L434.817 135.243L434.899 133.532L435.016 131.725L435.141 129.791L435.266 127.857L435.391 125.923L435.516 123.989L435.647 122.056L435.778 120.123L435.909 118.19L436.04 116.257L436.181 114.175L436.297 112.093L436.404 110.16L436.511 108.227L436.618 106.294L436.715 104.521L436.846 102.779L436.989 100.878L437.132 98.977L437.275 97.076L437.427 95.048L437.542 93.115L437.649 91.309L437.756 89.503L437.863 87.697L437.968 85.918L438.073 84.234L438.18 82.523L438.287 80.812L438.394 79.101L438.509 77.248L438.591 75.125L438.666 73.144L438.741 71.163L438.823 69.02L438.859 67.076L438.89 65.294L438.921 63.512L438.955 61.528L438.942 59.782L438.928 58.238L438.914 56.694L438.897 54.875L438.812 52.859L438.733 51.117L438.613 48.652L438.343 46.508L438.147 45.085L437.836 42.895L437.301 40.557L436.522 37.542L435.523 35.13L433.692 31.612L425.596 24.743L414.392 23.938L406.998 27.457L404.016 30.299L402.864 31.567L401.542 33.158L399.838 35.266L398.484 37.357L397.724 38.579L396.743 40.16L395.712 42.01L394.893 43.496L393.972 45.166L392.994 47.049L392.116 48.746L391.086 50.739L390.237 52.548L389.533 54.057L388.829 55.566L388.076 57.181L387.276 58.953L386.525 60.619L385.774 62.285L384.958 64.096L384.258 65.732L383.622 67.223L382.986 68.714L382.35 70.205L381.647 71.853L380.946 73.596L380.31 75.182L379.674 76.768L379.038 78.354L378.345 80.082L377.654 81.906L377.018 83.587L376.382 85.268L375.746 86.949L375.062 88.76L374.382 90.667L373.749 92.444L373.116 94.221L372.483 95.998L371.852 97.771L371.185 99.639L370.517 101.511L369.849 103.383L369.181 105.255L368.499 107.166L367.928 108.791L367.37 110.377L366.812 111.963L366.254 113.549L365.696 115.135L365.125 116.759L364.552 118.408L363.992 120.02L363.432 121.632L362.872 123.244L362.312 124.856L361.711 126.587L361.131 128.315L360.591 129.924L360.051 131.533L359.511 133.142L358.971 134.751L358.402 136.446L357.761 138.431L357.148 140.33L356.535 142.229L355.922 144.128L355.281 146.117L354.674 148.075L354.095 149.942L353.516 151.809L352.938 153.676L352.375 155.493L351.845 157.151L351.299 158.858L350.754 160.565L350.209 162.272L349.622 164.114L349.09 165.825L348.598 167.401L348.107 168.977L347.616 170.553L347.191 171.908L346.647 173.459L346.034 175.23L345.421 177.001L344.81 178.768L344.288 180.258L343.765 181.752L343.242 183.246L342.831 184.411L342.311 185.652L341.673 187.22L341.198 188.373L340.5 189.754L339.861 191.043L339.423 191.704L339.949 190.903L345.64 186.448L359.473 187.285L365.935 194.389L366.351 195.381L366.431 195.95L366.531 195.992L366.478 194.872L366.485 193.912V192.486L366.483 191.335L366.51 189.813L366.544 188.017L366.57 186.412L366.63 185.017L366.7 183.432L366.77 181.847L366.818 180.584L366.95 179.042L367.109 177.179L367.268 175.316L367.435 173.365L367.571 171.597L367.699 169.917L367.827 168.237L367.955 166.557L368.061 165.113L368.242 163.479L368.448 161.609L368.654 159.739L368.86 157.869L369.055 156.099L369.285 154.234L369.527 152.269L369.769 150.304L370.011 148.339L370.261 146.313L370.47 144.509L370.672 142.766L370.874 141.023L371.076 139.28L371.278 137.537L371.467 135.897L371.685 134.204L371.917 132.408L372.149 130.612L372.381 128.816L372.613 127.02L372.847 125.209L373.083 123.372L373.317 121.55L373.551 119.728L373.785 117.906L374.019 116.084L374.235 114.389L374.484 112.695L374.751 110.873L375.018 109.051L375.285 107.229L375.552 105.407L375.814 103.619L376.076 101.884L376.343 100.115L376.61 98.346L376.877 96.577L377.144 94.808L377.426 92.94L377.678 91.125L377.916 89.409L378.154 87.693L378.392 85.977L378.63 84.261L378.858 82.616L379.128 80.754L379.408 78.821L379.688 76.888L379.968 74.955L380.256 72.968L380.513 71.14L380.762 69.366L381.011 67.592L381.26 65.818L381.521 63.959L381.741 62.226L381.95 60.578L382.159 58.93L382.368 57.282L382.585 55.575L382.815 53.694L383.038 51.872L383.261 50.05L383.518 47.929L383.673 46.045L383.8 44.46L383.927 42.875L384.064 41.162L384.183 39.29L384.293 37.547L384.43 35.26L384.421 32.735L384.395 30.257L384.283 28.334L383.926 24.827L380.395 16.606L368.367 9.93802L356.907 13.16L353.944 15.744L351.936 17.921L350.117 20.72L349.461 21.815L348.538 23.306L347.192 25.512L346.142 27.576L345.429 29.002L344.594 30.678L343.704 32.62L342.932 34.31L342.093 36.148L341.36 37.841L340.692 39.385L340.024 40.929L339.335 42.521L338.557 44.351L337.8 46.133L337.043 47.915L336.194 49.916L335.5 51.689L334.894 53.241L334.288 54.793L333.682 56.345L333.09 57.862L332.427 59.537L331.75 61.248L331.073 62.959L330.396 64.67L329.65 66.558L328.906 68.574L328.229 70.412L327.552 72.25L326.875 74.088L326.17 76.001L325.553 77.741L324.963 79.406L324.373 81.071L323.783 82.736L323.193 84.401L322.537 86.256L321.908 88.163L321.344 89.879L320.78 91.595L320.216 93.311L319.652 95.027L319.103 96.696L318.525 98.417L317.931 100.186L317.337 101.955L316.743 103.724L316.149 105.493L315.506 107.409L314.895 109.352L314.331 111.147L313.767 112.942L313.203 114.737L312.639 116.532L312.048 118.411L311.488 120.264L310.953 122.033L310.418 123.802L309.883 125.571L309.348 127.34L308.778 129.227L308.239 131.114L307.734 132.883L307.229 134.652L306.724 136.421L306.219 138.19L305.732 139.897L305.245 141.551L304.74 143.267L304.235 144.983L303.73 146.699L303.225 148.415L302.684 150.256L302.198 151.99L301.747 153.599L301.296 155.208L300.845 156.817L300.394 158.426L299.913 160.146L299.413 162.03L298.942 163.802L298.471 165.574L298 167.346L297.579 168.934L297.16 170.364L296.69 171.978L296.22 173.592L295.75 175.206L295.282 176.812L294.782 178.504L294.28 180.204L293.778 181.904L293.395 183.212L293.007 184.24L292.491 185.657L291.975 187.074L291.502 188.369L290.977 189.714L290.409 191.18L290.008 192.205L289.428 193.412L289.157 194.018L289.055 194.024L289.36 193.609L297.715 188.464L312.333 192.399L316.296 198.756L316.471 199.262L316.328 198.196L316.145 196.659L315.99 195.645L315.986 194.814L315.962 193.177L315.936 191.784L315.956 190.522L315.981 189.017L316.006 187.512L316.025 186.173L316.087 184.557L316.156 182.774L316.225 180.991L316.287 179.329L316.365 177.801L316.45 176.152L316.535 174.503L316.62 172.854L316.698 171.307L316.811 169.57L316.931 167.731L317.051 165.892L317.171 164.053L317.284 162.296L317.406 160.687L317.535 158.996L317.664 157.305L317.793 155.614L317.922 153.923L318.042 152.333L318.191 150.663L318.35 148.892L318.509 147.121L318.668 145.35L318.827 143.579L318.976 141.9L319.156 140.142L319.346 138.292L319.536 136.442L319.726 134.592L319.916 132.742L320.093 131.002L320.299 129.235L320.519 127.358L320.739 125.481L320.958 123.604L321.177 121.727L321.396 119.85L321.616 117.973L321.836 116.096L322.056 114.219L322.276 112.342L322.496 110.465L322.716 108.588L322.938 106.712L323.16 104.836L323.382 102.959L323.604 101.082L323.826 99.205L324.025 97.495L324.262 95.865L324.522 94.069L324.782 92.273L325.042 90.477L325.302 88.681L325.574 86.807L325.823 85.013L326.061 83.297L326.299 81.581L326.537 79.865L326.775 78.149L327.022 76.363L327.272 74.359L327.513 72.425L327.754 70.491L327.995 68.557L328.227 66.691L328.467 64.953L328.716 63.147L328.965 61.341L329.214 59.535L329.491 57.52L329.688 55.695L329.861 54.079L330.034 52.463L330.207 50.847L330.388 49.153L330.567 47.293L330.738 45.51L330.909 43.727L331.087 41.878L331.259 39.857L331.425 37.902L331.621 35.572L331.701 33.771L331.76 32.345L331.829 30.602L331.858 28.78L331.768 25.406L329.894 18.856L319.715 10.336L306.447 12.577L301.883 16.779L300.572 18.54L299.374 20.273L298.146 22.518L297.457 23.819L296.828 24.988L296.175 26.202L295.272 27.901L294.336 29.983L293.633 31.571L292.866 33.303L292.187 34.916L291.571 36.384L290.955 37.852L290.278 39.465L289.558 41.276L288.897 42.942L288.236 44.608L287.453 46.588L286.81 48.428L286.282 49.951L285.754 51.474L285.226 52.997L284.624 54.736L284.029 56.635L283.505 58.317L282.981 59.999L282.457 61.681L281.897 63.476L281.338 65.367L280.814 67.144L280.29 68.921L279.766 70.698L279.26 72.416L278.718 74.197L278.158 76.038L277.598 77.879L277.038 79.72L276.467 81.595L275.893 83.501L275.33 85.372L274.767 87.243L274.204 89.114L273.641 90.985L273.064 92.852L272.487 94.719L271.91 96.586L271.333 98.453L270.746 100.354L270.166 102.289L269.596 104.19L269.026 106.091L268.456 107.992L267.906 109.824L267.357 111.593L266.787 113.431L266.217 115.269L265.647 117.107L265.008 119.171L264.438 121.203L263.933 123.007L263.428 124.811L262.923 126.615L262.37 128.599L261.875 130.485L261.426 132.19L260.977 133.895L260.528 135.601L260.084 137.289L259.675 138.818L259.262 140.365L258.849 141.912L258.436 143.459L257.984 145.164L257.519 147.059L257.092 148.795L256.665 150.531L256.26 152.174L255.897 153.539L255.511 154.997L255.126 156.455L254.791 157.712L254.37 159.027L253.897 160.543L253.598 161.464L253.09 162.59L252.69 163.52L252.427 163.826L253.11 162.691L257.31 158.83L269.499 157.684L277.995 164.351L279.305 167.684L279.449 168.207L279.387 167.398L279.371 166.193L279.343 164.776L279.376 163.623L279.419 162.144L279.452 160.874L279.542 159.287L279.644 157.491L279.737 155.824L279.848 154.328L279.969 152.703L280.09 151.078L280.2 149.576L280.354 147.876L280.519 146.053L280.684 144.23L280.841 142.489L281 140.922L281.168 139.273L281.336 137.624L281.504 135.975L281.659 134.44L281.848 132.81L282.051 131.066L282.254 129.322L282.457 127.578L282.666 125.785L282.873 123.897L283.074 122.058L283.275 120.219L283.476 118.38L283.679 116.526L283.895 114.641L284.109 112.772L284.323 110.903L284.537 109.034L284.751 107.165L284.965 105.296L285.179 103.427L285.393 101.558L285.607 99.689L285.834 97.697L286.025 95.769L286.203 93.963L286.381 92.157L286.559 90.351L286.718 88.732L286.91 87.176L287.124 85.434L287.338 83.692L287.552 81.95L287.799 79.913L287.959 77.938L288.091 76.258L288.223 74.578L288.355 72.898L288.483 71.258L288.645 69.317L288.81 67.336L288.975 65.355L289.133 63.451L289.291 61.745L289.456 59.962L289.621 58.179L289.798 56.275L289.933 54.569L290.058 52.984L290.183 51.399L290.318 49.689L290.464 47.822L290.6 46.081L290.764 43.806L290.791 41.846L290.809 40.42L290.826 38.994L290.85 37.331L290.824 34.409L290.512 32.047L290.022 29.391L285.667 21.195L271.892 16.048L262.051 20.703L258.81 24.349L257.404 26.384L256.321 28.019L255.17 30.067L254.284 31.648L253.56 33L252.886 34.257L252.116 35.704L251.295 37.367L250.568 38.839L249.732 40.542L248.877 42.528L248.128 44.281L247.461 45.852L246.85 47.184L246.155 48.697L245.46 50.21L244.669 51.928L243.882 53.766L243.187 55.398L242.492 57.03L241.786 58.688L241.035 60.465L240.296 62.215L239.557 63.965L238.769 65.83L237.982 67.775L237.243 69.604L236.504 71.433L235.643 73.565L234.972 75.428L234.417 76.986L233.862 78.544L233.307 80.102L232.683 81.853L232.097 83.636L231.578 85.225L231.059 86.814L230.54 88.403L230.056 89.892L229.534 91.412L228.977 93.032L228.42 94.652L227.863 96.272L227.271 97.992L226.708 99.678L226.179 101.264L225.65 102.85L225.121 104.436L224.675 105.782L224.199 107.067L223.636 108.59L223.073 110.113L222.51 111.636L221.986 113.058L221.312 114.779L220.599 116.601L219.886 118.423L219.154 120.293L218.467 122.084L217.799 123.826L217.131 125.568L216.463 127.31L215.769 129.042L215.075 130.774L214.381 132.507L213.598 134.477L212.953 136.251L212.393 137.787L211.833 139.323L211.217 141.021L210.536 143.022L209.909 144.86L209.37 146.432L208.898 147.636L208.334 149.104L207.883 150.269L207.29 151.711L206.875 152.771L206.582 153.292L206.584 153.395L209.811 150.33L221.085 148.219L229.618 153.572L231.334 156.923L231.634 157.825L231.55 157.229L231.512 156.242L231.44 154.999L231.437 153.994L231.428 152.568L231.417 151.402L231.461 149.866L231.512 148.07L231.555 146.467L231.627 145.114L231.709 143.569L231.791 142.024L231.863 140.627L231.976 139.031L232.1 137.288L232.224 135.545L232.336 133.949L232.477 132.232L232.632 130.368L232.786 128.504L232.928 126.768L233.113 124.913L233.312 122.93L233.511 120.947L233.715 118.916L233.879 117.187L234.038 115.506L234.196 113.825L234.354 112.144L234.495 110.622L234.669 109.099L234.862 107.417L235.055 105.735L235.248 104.053L235.443 102.354L235.634 100.623L235.822 98.909L236.01 97.195L236.198 95.481L236.388 93.75L236.578 91.988L236.766 90.242L236.954 88.496L237.142 86.75L237.344 84.883L237.511 83.08L237.664 81.398L237.817 79.716L237.97 78.034L238.119 76.382L238.275 74.794L238.434 73.176L238.593 71.558L238.752 69.94L238.925 68.188L239.116 66.114L239.294 64.174L239.472 62.234L239.641 60.387L239.81 58.777L239.988 57.074L240.166 55.371L240.357 53.537L240.503 51.861L240.637 50.317L240.771 48.773L240.917 47.08L241.046 45.136L241.165 43.341L241.278 41.629L241.391 40.181L241.51 38.65L241.662 36.55L241.673 34.238L241.664 31.979L241.548 30.196L241.158 26.828L235.926 17.387L223.162 13.55L214.151 17.774L211.35 20.945L210.288 22.272L209.185 23.955L208.224 25.436L207.246 27.483L206.235 29.623L205.445 31.511L204.862 32.969L204.329 34.32L203.617 35.989L202.856 37.765L201.932 39.896L201.204 41.78L200.631 43.306L200.058 44.832L199.495 46.334L198.792 48.013L198.079 49.716L197.366 51.419L196.605 53.239L195.952 54.877L195.346 56.398L194.74 57.919L194.134 59.44L193.507 61.014L192.845 62.715L192.203 64.362L191.561 66.009L190.919 67.656L190.213 69.471L189.51 71.413L188.868 73.187L188.226 74.961L187.584 76.735L186.873 78.706L186.216 80.747L185.626 82.59L185.036 84.433L184.446 86.276L183.834 88.188L183.222 90.163L182.632 92.069L182.042 93.975L181.452 95.881L180.862 97.787L180.272 99.693L179.682 101.599L179.092 103.505L178.502 105.411L177.912 107.317L177.321 109.223L176.73 111.129L176.139 113.035L175.548 114.941L174.941 116.899L174.361 118.791L173.797 120.63L173.233 122.469L172.669 124.308L172.127 126.079L171.588 127.787L171.027 129.564L170.466 131.341L169.905 133.118L169.286 135.08L168.731 136.977L168.232 138.688L167.733 140.399L167.234 142.11L166.726 143.852L166.254 145.499L165.791 147.115L165.328 148.731L164.865 150.347L164.309 152.3L163.756 154.535L163.287 156.43L162.818 158.325L162.369 160.137L161.965 161.672L161.541 163.29L161.117 164.908L160.658 166.672L160.176 168.659L159.728 170.5L159.354 172.03L158.982 173.242L158.53 174.763L158.118 176.141L157.534 177.793L157.128 178.905L156.849 179.307L156.714 179.485L161.883 174.122L178.844 175.435L184.119 184.222L184.114 183.95L184.081 184.065L184.162 183.786L184.257 182.572L184.418 180.802L184.585 178.94L184.769 177.37L184.964 175.682L185.149 174.093L185.328 172.688L185.518 171.185L185.708 169.682L185.861 168.47L186.096 167.06L186.373 165.359L186.65 163.658L186.946 161.833L187.231 159.809L187.498 157.908L187.765 156.007L188.021 154.188L188.215 152.616L188.421 150.962L188.627 149.308L188.832 147.654L189.046 145.938L189.259 144.128L189.463 142.379L189.667 140.63L189.87 138.881L190.081 137.077L190.292 135.179L190.496 133.335L190.699 131.491L190.902 129.647L191.085 127.943L191.309 126.239L191.554 124.395L191.798 122.551L192.042 120.707L192.304 118.742L192.562 116.814L192.803 115.007L193.044 113.2L193.285 111.393L193.5 109.767L193.748 108.203L194.024 106.459L194.3 104.715L194.576 102.971L194.845 101.27L195.114 99.633L195.39 97.952L195.666 96.271L195.942 94.59L196.206 92.98L196.471 91.465L196.748 89.88L197.025 88.295L197.302 86.709L197.559 85.231L197.887 83.516L198.235 81.693L198.583 79.87L198.906 78.174L199.228 76.636L199.576 74.971L199.924 73.306L200.324 71.391L200.638 69.635L200.905 68.13L201.172 66.625L201.435 65.146L201.727 63.535L202.024 61.898L202.376 59.938L202.774 57.645L203.181 55.181L203.393 53.344L203.591 50.687L201.896 42.568L190.41 34.068L178.756 36.831L174.598 40.626L173.22 42.352L171.907 44.104L170.567 46.376L169.6 48.058L168.568 50.07L167.596 51.973L166.804 53.613L166.091 55.091L165.182 56.993L164.286 59.165L163.573 60.907L162.826 62.734L162.213 64.284L161.634 65.749L161.055 67.214L160.318 69.097L159.648 71.147L159.124 72.774L158.6 74.401L158.138 75.842L157.589 77.403L156.975 79.149L156.361 80.895L155.696 82.788L155.033 84.8L154.42 86.665L153.807 88.53L153.179 90.44L152.679 92.011L152.194 93.536L151.709 95.061L151.224 96.586L150.808 97.907L150.343 99.3L149.807 100.896L149.271 102.493L148.736 104.09L148.201 105.687L147.666 107.284L147.131 108.881L146.596 110.478L146.062 112.075L145.478 113.811L144.931 115.547L144.432 117.143L143.934 118.739L143.436 120.335L142.891 122.072L142.384 123.809L141.922 125.405L141.461 127.001L141 128.597L140.507 130.297L140.045 131.963L139.615 133.525L139.185 135.087L138.755 136.649L138.304 138.282L137.79 140.226L137.297 142.099L136.804 143.972L136.289 145.922L135.818 147.792L135.368 149.585L134.918 151.378L134.467 153.175L134.048 154.81L133.63 156.441L133.213 158.072L132.847 159.523L132.455 160.808L132.009 162.273L131.563 163.738L131.206 164.922L130.707 166.333L130.113 168.023L129.622 169.429L129.137 170.626L128.543 172.104L128.079 173.27L127.398 174.696L126.823 175.929L126.308 176.667L126.093 176.981L126.043 176.856L127.777 175.202L136.546 172.621L145.685 177.16L147.906 181.154L148.125 181.718L148.087 181.591L148.127 180.998V179.335V177.909V176.483L148.125 175.31L148.163 173.873L148.207 172.183L148.245 170.644L148.326 169.211L148.415 167.627L148.504 166.043L148.584 164.605L148.699 163.008L148.824 161.265L148.949 159.522L149.051 158.048L149.233 156.375L149.443 154.433L149.653 152.491L149.872 150.475L150.028 148.687L150.176 146.973L150.324 145.259L150.472 143.545L150.595 142.049L150.786 140.425L151.005 138.583L151.224 136.741L151.442 134.899L151.651 133.121L151.895 131.216L152.148 129.247L152.401 127.278L152.654 125.309L152.911 123.31L153.122 121.586L153.328 119.892L153.534 118.198L153.74 116.504L153.946 114.81L154.133 113.248L154.33 111.709L154.547 110.038L154.764 108.367L154.981 106.696L155.197 105.025L155.394 103.467L155.62 101.908L155.865 100.236L156.11 98.563L156.355 96.89L156.6 95.217L156.841 93.562L157.132 91.604L157.426 89.628L157.72 87.652L158.014 85.676L158.321 83.624L158.595 81.636L158.856 79.725L159.116 77.814L159.376 75.903L159.61 74.14L159.902 72.443L160.222 70.598L160.541 68.753L160.86 66.908L161.209 64.905L161.484 63.03L161.732 61.313L161.979 59.596L162.226 57.879L162.485 56.091L162.71 54.399L162.923 52.778L163.136 51.157L163.349 49.536L163.591 47.716L163.803 45.651L163.989 43.785L164.175 41.919L164.351 40.134L164.58 38.554L164.819 36.893L165.058 35.232L165.326 33.341L165.528 31.209L165.706 29.308L165.894 27.299L166.038 25.608L166.173 24.025L166.319 22.29L166.474 20.319L166.63 18.21L166.85 16.574L167 13.989L165.417 7.14001L156.203 0L145.162 2.13202L140.717 6.55801L139.357 8.62399L138.349 10.207L137.269 12.2L136.237 14.133L135.448 15.874L134.829 17.236L134.251 18.506L133.598 20.007L132.904 21.6L132.181 23.258L131.543 24.756L130.934 26.188L130.325 27.62L129.705 29.077L129.04 30.653L128.386 32.204L127.732 33.755L127.106 35.242L126.393 36.889L125.652 38.599L124.911 40.309L124.083 42.219L123.41 43.916L122.821 45.412L122.232 46.908L121.643 48.404L121.05 49.91L120.421 51.511L119.797 53.102L119.173 54.693L118.549 56.284L117.83 58.115L117.152 60.042L116.564 61.727L115.976 63.412L115.388 65.097L114.745 66.937L114.141 68.809L113.59 70.526L113.039 72.243L112.488 73.96L111.976 75.561L111.433 77.164L110.85 78.883L110.267 80.602L109.684 82.321L109.049 84.189L108.452 86.089L107.905 87.839L107.358 89.589L106.811 91.339L106.326 92.904L105.807 94.407L105.223 96.094L104.639 97.781L104.055 99.468L103.485 101.118L102.915 102.737L102.331 104.393L101.747 106.049L101.164 107.705L100.595 109.323L100.021 110.908L99.433 112.53L98.845 114.152L98.257 115.774L97.624 117.519L97.063 119.169L96.547 120.696L96.031 122.223L95.515 123.75L94.982 125.326L94.361 127.203L93.757 129.031L93.153 130.859L92.559 132.657L92 134.293L91.431 135.96L90.862 137.627L90.305 139.257L89.736 140.708L89.154 142.196L88.573 143.684L88.075 144.944L87.448 146.33L86.734 147.943L86.056 149.467L85.439 150.779L84.786 152.18L84.448 152.884L83.747 153.906L83.03 155.038L82.457 155.72L82.244 156.012L82.208 155.89L83.968 154.635L88.922 153.132L95.689 155.1L99.206 158.856L99.619 159.573L99.561 159.434L99.508 159.003L99.356 158.321L99.26 157.169L99.114 155.739L99.044 154.654L98.953 153.177L98.873 152.198L98.893 150.9L98.92 149.104L98.948 147.284L98.968 145.755L98.987 144.249L99.006 142.743L99.01 141.589L99.09 140.314L99.194 138.688L99.298 137.062L99.405 135.399L99.492 133.616L99.576 131.87L99.659 130.124L99.731 128.514L99.846 126.824L99.973 124.997L100.1 123.17L100.211 121.498L100.366 119.825L100.538 117.997L100.71 116.169L100.884 114.325L101.064 112.442L101.242 110.575L101.419 108.708L101.578 106.987L101.809 105.269L102.06 103.405L102.311 101.541L102.559 99.696L102.806 97.891L103.055 96.067L103.304 94.243L103.553 92.419L103.799 90.594L104.044 88.769L104.289 86.944L104.525 85.18L104.783 83.538L105.05 81.835L105.317 80.132L105.573 78.499L105.829 76.984L106.096 75.4L106.363 73.816L106.647 72.133L106.959 70.081L107.256 68.127L107.567 66.08L107.818 64.244L108.056 62.502L108.309 60.64L108.502 58.989L108.68 57.458L108.9 55.505L109.06 53.184L109.188 51.381L109.315 50.054L109.457 47.252L109.179 44.764L108.909 42.942L107.01 37.676L99.058 31.496L89.637 32.121L85.208 34.906L83.773 36.246L82.251 37.797L80.856 39.772L80.194 40.78L79.33 42.009L78.079 43.816L76.873 45.967L75.94 47.666L75.245 48.995L74.608 50.218L73.763 51.844L73.015 53.592L72.46 54.93L71.855 56.381L71.192 58.043L70.579 59.591L69.859 61.398L69.207 63.259L68.656 64.859L68.152 66.337L67.591 67.87L66.982 69.525L66.214 71.601L65.6 73.738L65.131 75.448L64.74 76.919L64.294 78.342L63.765 80.003L63.237 81.664L62.707 83.324L62.178 84.984L61.714 86.471L61.189 87.96L60.597 89.621L60.056 91.158L59.494 92.582L58.88 94.13L58.326 95.541L57.773 96.848L57.159 98.292L56.529 99.771L55.955 101.143L55.397 102.479L54.821 103.857L54.043 105.739L53.262 107.629L52.493 109.327L51.81 110.829L51.252 112.03L50.664 113.299L50.146 114.321L49.847 114.92L49.594 115.305L48.951 116.357L49.219 116.326L51.739 114.237L58.96 113.314L64.895 117.062L66.24 119.727L66.467 120.744L66.494 119.769V118.581V117.393V115.967L66.49 114.836L66.567 113.467L66.658 111.767L66.749 109.829L66.827 108.127L66.931 106.9L67.05 105.474L67.17 104.032L67.29 102.537L67.409 101.059L67.531 99.538L67.653 97.859L67.772 96.222L67.878 94.747L68.041 93.166L68.219 91.424L68.397 89.682L68.575 87.94L68.753 86.198L68.933 84.439L69.113 82.627L69.291 80.832L69.448 79.237L69.66 77.694L69.898 75.952L70.157 74.044L70.354 72.188L70.532 70.498L70.689 68.997L70.902 67.496L71.14 65.806L71.398 63.966L71.629 62.235L71.841 60.655L72.048 59.118L72.255 57.687L72.467 56.213L72.7 54.551L72.867 52.993L73.016 51.623L73.135 50.553L73.395 48.955L73.749 46.588L73.875 44.531L73.962 42.982L74.049 41.592L74.155 39.812L74.161 38.19V36.923V35.814L74.103 33.562L73.561 30.268L72.264 26.304L67.563 21.144L59.683 19.275L53.804 21.397L50.874 23.856L48.701 26.436L47.679 28.039L46.932 29.27L46.281 30.71L45.773 31.893L45.177 33.312L44.652 34.588L44.036 36.022L43.157 38.017L42.368 40.241L41.945 41.553L41.304 42.929L40.398 44.905L39.745 46.454L39.191 47.766L38.718 48.884L38.209 50.011L37.615 51.331L37.006 52.685L36.337 54.197L35.684 55.675L35.075 57.055L34.435 58.501L33.75 60.045L33.035 61.653L32.321 63.314L31.636 64.911L30.857 66.723L30.143 68.588L29.518 70.236L28.872 71.939L28.226 73.694L27.602 75.395L26.999 77.042L26.367 78.625L25.714 80.262L24.999 82.057L24.361 83.858L23.782 85.5L23.145 87.305L22.555 89.106L22.02 90.743L21.47 92.427L20.92 94.164L20.385 95.854L19.827 97.62L19.329 99.28L18.854 100.864L18.449 102.222L17.99 103.529L17.455 105.06L16.86 106.768L16.328 108.477L15.853 110.008L15.473 111.246L15.042 112.381L14.507 113.807L13.996 115.17L13.486 116.48L12.951 117.853L12.367 119.354L11.844 120.803L11.369 122.123L10.944 123.306L10.284 124.991L9.49 127.028L8.789 129.066L8.216 130.742L7.607 132.246L6.912 133.983L6.31 135.563L5.771 136.966L5.242 138.293L4.68 139.708L4.234 140.896L3.741 142.214L3.515 143.436L3.383 144.401L3.253 145.293L2.975 146.603L2.84 148.329L2.49 149.894L1.731 151.96L1.214 153.757L0.942999 154.722L0.710999 155.448L0.394999 156.856L0.849998 156.481L0.936998 156.482L0 159.704L0.139999 161.427L1.041 161.585L15.298 161.427L14.838 161.269L14.322 161.509L14.5 161.034L14.593 159.685L14.409 159.368L12.648 163.051L8.984 164.347L8.987 154.076Z"/>
</svg>
