<svg width="256" height="256" fill="none" xmlns="http://www.w3.org/2000/svg"><g clip-path="url(#clip0)"><path fill="#1AB875" d="M0 0h256v256H0z"/><path fill="#fff" d="M0 0h148v256H0z"/><path fill="#4057E1" d="M144-7h8v272h-8z"/><circle cx="148" cy="128" r="17" fill="#4057E1" stroke="#fff" stroke-width="6"/><path d="M43.087 141.504c-2.448 0-4.62-.54-6.516-1.62s-3.372-2.616-4.428-4.608c-1.056-1.992-1.584-4.296-1.584-6.912 0-2.592.552-4.872 1.656-6.84 1.128-1.992 2.688-3.528 4.68-4.608 1.992-1.08 4.248-1.62 6.768-1.62 1.272 0 2.52.132 3.744.396 1.248.264 2.34.612 3.276 1.044l-.396 3.6c-2.208-.912-4.392-1.368-6.552-1.368-2.928 0-5.136.864-6.624 2.592-1.488 1.728-2.232 3.996-2.232 6.804 0 2.88.744 5.184 2.232 6.912 1.512 1.704 3.708 2.556 6.588 2.556 1.44 0 2.736-.18 3.888-.54v-5.544h-3.744v-3.384h7.668v11.232c-.984.576-2.22 1.044-3.708 1.404-1.464.336-3.036.504-4.716.504zM56.153 115.8h8.604c2.736 0 4.872.636 6.408 1.908 1.536 1.272 2.304 3.192 2.304 5.76 0 3.288-1.452 5.628-4.356 7.02L74.765 141h-4.572l-5.004-9.612h-5.004V141h-4.032v-25.2zm8.064 12.168c1.728 0 3.012-.384 3.852-1.152.864-.792 1.296-1.872 1.296-3.24 0-1.416-.42-2.496-1.26-3.24-.84-.768-2.112-1.152-3.816-1.152h-4.104v8.784h4.032zM78.23 115.8h3.924V141H78.23v-25.2zm9.562 0h9.36c2.424 0 4.584.504 6.48 1.512 1.896 1.008 3.372 2.46 4.428 4.356s1.584 4.14 1.584 6.732c0 2.592-.528 4.836-1.584 6.732s-2.532 3.348-4.428 4.356S99.577 141 97.153 141h-9.36v-25.2zm9.36 21.672c2.64 0 4.656-.804 6.048-2.412 1.416-1.632 2.124-3.852 2.124-6.66 0-2.808-.708-5.016-2.124-6.624-1.392-1.632-3.408-2.448-6.048-2.448h-5.436v18.144h5.436z" fill="#000"/><g filter="url(#filter0_d)"><path d="M183.2 163.2L160 140v32l6.4-6.2 4.6 10.6 7.2-3-4.2-10.2h9.2z" fill="#000"/><path d="M183.2 165.2h4.828l-3.414-3.414-23.2-23.2-3.414-3.414V176.722l3.392-3.286 4.324-4.189 3.449 7.949.785 1.808 1.819-.758 7.2-3 1.839-.766-.759-1.841-3.063-7.439h6.214z" stroke="#fff" stroke-width="4"/></g></g><defs><clipPath id="clip0"><path fill="#fff" d="M0 0h256v256H0z"/></clipPath><filter id="filter0_d" x="148" y="130.343" width="52.857" height="67.265" filterUnits="userSpaceOnUse" color-interpolation-filters="sRGB"><feFlood flood-opacity="0" result="BackgroundImageFix"/><feColorMatrix in="SourceAlpha" values="0 0 0 0 0 0 0 0 0 0 0 0 0 0 0 0 0 0 127 0"/><feOffset dy="8"/><feGaussianBlur stdDeviation="4"/><feColorMatrix values="0 0 0 0 0 0 0 0 0 0 0 0 0 0 0 0 0 0 0.35 0"/><feBlend in2="BackgroundImageFix" result="effect1_dropShadow"/><feBlend in="SourceGraphic" in2="effect1_dropShadow" result="shape"/></filter></defs></svg>