<svg width="256" height="256" viewBox="0 0 256 256" fill="none" xmlns="http://www.w3.org/2000/svg">
<g clip-path="url(#clip0)">
<rect width="256" height="256" fill="#1E1E1E"/>
<rect x="30" width="256" height="256" fill="white"/>
<path d="M187.988 125.847C187.791 119.865 186.004 114.181 183.243 108.828C180.851 104.229 177.671 100.011 173.89 96.474C170.166 92.9711 165.891 90.1174 161.236 88.0155C158.829 86.936 156.357 86.0564 153.78 85.4539C151.772 84.9798 149.741 84.608 147.708 84.343C142.411 83.6857 136.966 83.9831 131.753 85.1492C127.28 86.1597 122.964 87.807 118.965 90.0415C114.966 92.2759 111.285 95.0974 108.096 98.3949C104.567 102.067 101.602 106.274 99.4612 110.903C97.7421 114.597 96.4428 118.514 95.7579 122.547C95.08 126.454 94.8086 130.453 95.1428 134.415C95.3508 136.932 95.7148 139.42 96.3159 141.897C96.9059 144.328 97.6971 146.718 98.6578 149.018C100.584 153.598 103.22 157.865 106.48 161.628C109.804 165.492 113.786 168.795 118.165 171.372C122.733 174.056 127.794 175.97 132.997 176.95C138.075 177.923 144.062 178.378 149.183 177.621C155.715 176.655 163.349 170.335 152.533 172.913C149.969 173.523 145.623 173.495 141.284 172.833C124.831 170.327 115.428 162.744 108.118 147.317C101.912 128.476 108.469 108.351 124.648 99.9299C136.358 93.8347 147.768 94.817 157.874 103.109C167.982 111.401 167.62 125.319 174.464 132.351C176.802 135.269 183.619 135.911 186.484 132.054C187.85 130.214 188.058 127.968 187.988 125.847Z" fill="#1E1E1E"/>
</g>
<defs>
<clipPath id="clip0">
<rect width="256" height="256" fill="white"/>
</clipPath>
</defs>
</svg>
