<svg width="256" height="256" viewBox="0 0 256 256" fill="none" xmlns="http://www.w3.org/2000/svg">
<rect width="256" height="256" fill="white"/>
<path d="M187.978 121.053C187.707 112.897 185.256 105.148 181.468 97.8493C178.187 91.5798 173.825 85.8291 168.639 81.0067C163.531 76.2309 157.667 72.3403 151.282 69.4746C147.98 68.0028 144.589 66.8036 141.054 65.9823C138.3 65.3359 135.515 64.8289 132.726 64.4676C125.459 63.5715 117.99 63.9769 110.84 65.5667C104.704 66.9445 98.7836 69.1904 93.2987 72.2368C87.8138 75.2831 82.7645 79.1299 78.3896 83.6256C73.5491 88.6319 69.4821 94.3679 66.5452 100.679C64.1871 105.715 62.4048 111.055 61.4654 116.554C60.5355 121.881 60.1632 127.332 60.6217 132.734C60.907 136.166 61.4062 139.558 62.2308 142.934C63.0401 146.249 64.1253 149.508 65.4432 152.644C68.0852 158.888 71.7011 164.706 76.1736 169.836C80.7327 175.104 86.1949 179.607 92.2013 183.12C98.4678 186.779 105.409 189.389 112.547 190.725C119.512 192.051 127.724 192.672 134.749 191.64C143.708 190.323 154.179 181.707 139.343 185.221C135.827 186.054 129.866 186.014 123.914 185.113C101.346 181.695 88.4475 171.357 78.4195 150.324C69.9072 124.637 78.9015 97.1997 101.094 85.7184C117.156 77.4083 132.807 78.7476 146.671 90.0523C160.535 101.357 160.039 120.334 169.427 129.92C172.634 133.899 181.984 134.774 185.914 129.515C187.788 127.007 188.073 123.944 187.978 121.053Z" fill="#1E1E1E"/>
</svg>
