<svg width="256" height="256" viewBox="0 0 256 256" fill="none" xmlns="http://www.w3.org/2000/svg">
<rect width="256" height="256" fill="#3B57E9"/>
<rect width="256" height="256" fill="#4057E1"/>
<path d="M45.844 175.8H61.54V179.472H49.804V185.988H59.02V189.66H49.804V197.328H61.864V201H45.844V175.8Z" fill="white"/>
<path d="M85.1765 175.8L76.1405 201H72.2165L63.2165 175.8H67.2845L74.1965 195.456L81.1085 175.8H85.1765Z" fill="white"/>
<path d="M88.1018 175.8H103.798V179.472H92.0618V185.988H101.278V189.66H92.0618V197.328H104.122V201H88.1018V175.8Z" fill="white"/>
<path d="M108.246 175.8H112.278L124.014 193.548V175.8H127.974V201H124.662L112.17 182.208V201H108.246V175.8Z" fill="white"/>
<path d="M138.561 179.472H131.325V175.8H149.757V179.472H142.485V201H138.561V179.472Z" fill="white"/>
<rect x="40" y="40" width="111" height="111" fill="black"/>
<path d="M72.1558 79.9206C73.1468 79.9206 73.845 79.7066 74.2503 79.2787C74.6783 78.8508 74.8922 78.0963 74.8922 77.0153V54.1782H79.2164V77.9612C79.2164 79.9431 78.7434 81.3845 77.7975 82.2854C76.8516 83.1862 75.5003 83.6367 73.7436 83.6367H72.5274L72.1558 79.9206Z" fill="white"/>
<path d="M98.118 60.9347V77.826H94.1992L94.1317 76.8126C93.6137 77.1954 93.0169 77.522 92.3412 77.7923C91.6655 78.04 91.0124 78.1639 90.3818 78.1639C87.8819 78.1639 86.0576 77.4432 84.909 76.0018C83.7829 74.5604 83.2199 72.5672 83.2199 70.0223V60.9347H87.4089V70.0223C87.4089 71.5988 87.6679 72.7699 88.1859 73.5357C88.7265 74.2789 89.5823 74.6505 90.7534 74.6505C92.0597 74.6505 93.1182 74.1775 93.929 73.2316V60.9347H98.118Z" fill="white"/>
<path d="M110.542 60.6645C112.636 60.6645 114.224 61.3627 115.305 62.759C116.386 64.1554 116.927 66.0359 116.927 68.4007V77.826H112.738V68.7385C112.738 67.162 112.467 66.0021 111.927 65.2589C111.409 64.4932 110.564 64.1103 109.393 64.1103C108.109 64.1103 107.051 64.5945 106.218 65.563V77.826H102.029V60.9347H105.947L106.015 62.1171C107.434 61.1487 108.943 60.6645 110.542 60.6645Z" fill="white"/>
<path d="M78.1144 117.93C80.1993 114.725 81.6857 112.196 82.5737 110.343C83.4617 108.49 83.9057 106.772 83.9057 105.189C83.9057 103.336 83.3652 101.868 82.2841 100.787C81.2417 99.7064 79.8132 99.1659 77.9986 99.1659C74.5238 99.1659 71.2614 100.73 68.2113 103.857L67.4005 97.3706C70.8367 94.5907 74.6975 93.2008 78.9831 93.2008C82.5351 93.2008 85.2763 94.2433 87.2068 96.3281C89.1758 98.413 90.1603 101.058 90.1603 104.262C90.1603 106.695 89.6584 109.088 88.6546 111.443C87.6894 113.76 86.0099 116.733 83.6161 120.362L78.0565 128.759H91.6661V134.551H67.1688L78.1144 117.93Z" fill="white"/>
<path d="M127.072 119.378V124.648H121.86V134.609H115.605V124.648H95.5096L117.401 94.0695H121.86V119.378H127.072ZM115.605 119.378V105.42L105.702 119.378H115.605Z" fill="white"/>
</svg>
